<svg width="19" height="18" viewBox="0 0 19 18" fill="none" xmlns="http://www.w3.org/2000/svg">
<path d="M13.992 7.46937C13.107 7.29129 12.4941 7.80469 12.2738 8.61613C12.2465 8.71666 12.2757 8.74462 12.3788 8.74335C12.7816 8.7384 13.1845 8.74132 13.5874 8.74134C13.9834 8.74134 14.3795 8.74224 14.7755 8.74037C14.8348 8.7401 14.9049 8.77172 14.906 8.64963C14.9113 8.10558 14.5088 7.57336 13.992 7.46937Z" fill="#5F5F5F"/>
<path d="M5.47098 7.41981C5.81212 7.41435 6.15341 7.41776 6.49464 7.41776C6.49464 7.41713 6.49464 7.4165 6.49464 7.41586C6.83586 7.41586 7.17726 7.42265 7.51826 7.41398C7.87055 7.40503 8.03769 7.287 8.12797 6.98073C8.22607 6.64793 8.23383 6.31014 8.12106 5.97769C8.03838 5.73393 7.86133 5.59229 7.62631 5.59098C6.90292 5.58695 6.17949 5.59107 5.4561 5.58741C5.35874 5.58691 5.32868 5.61402 5.32955 5.71284C5.33419 6.23652 5.33467 6.76029 5.32937 7.28395C5.32824 7.39463 5.3668 7.42148 5.47098 7.41981Z" fill="#5F5F5F"/>
<path d="M7.41342 8.74123C7.11955 8.74122 6.82569 8.74122 6.53183 8.74123C6.1833 8.74123 5.8346 8.74743 5.48632 8.738C5.35714 8.73451 5.32727 8.77361 5.3284 8.89791C5.33455 9.57225 5.33356 10.2467 5.3291 10.921C5.32837 11.0304 5.34963 11.0737 5.47193 11.0726C6.15527 11.0663 6.83875 11.0741 7.52207 11.0669C7.90124 11.0629 8.20247 10.9009 8.35167 10.543C8.49118 10.2084 8.5043 9.85065 8.41355 9.50133C8.26894 8.94462 7.98911 8.74126 7.41342 8.74123Z" fill="#5F5F5F"/>
<path d="M17.7555 1.39184C17.2993 0.540513 16.591 0.0783465 15.6268 0.00397726C15.5658 -0.000723075 15.5043 0.000296809 15.4431 0.000290478C11.4556 0.000138445 7.46814 -0.000374665 3.48065 0.000486854C2.33217 0.000733905 1.40303 0.654277 1.03739 1.715C0.946223 1.97946 0.907195 2.2524 0.907227 2.53183C0.907602 6.5279 0.905809 10.524 0.908485 14.52C0.909305 15.7416 1.70405 16.7209 2.90041 16.9983C2.94864 17.0095 3.01566 16.9862 3.04615 17.0513C4.85068 17.0513 6.6552 17.0513 8.45973 17.0513H11.4673C12.9153 17.0513 14.3634 17.0513 15.8115 17.0513C15.9682 17.0101 16.1285 16.9793 16.2809 16.9259C17.173 16.6132 17.7331 15.9984 17.9595 15.0812C17.9727 15.0276 17.9519 14.9567 18.017 14.9199C18.017 10.6682 18.017 6.41652 18.017 2.16483C17.9259 1.90862 17.8865 1.63639 17.7555 1.39184ZM11.8764 4.63001C11.9859 4.52608 12.266 4.59697 12.4704 4.59663C13.3595 4.59516 14.2486 4.60068 15.1376 4.59182C15.304 4.59017 15.3504 4.63955 15.337 4.79702C15.3238 4.95266 15.3257 5.11089 15.3368 5.26687C15.3458 5.39354 15.305 5.42867 15.1777 5.42694C14.6512 5.41981 14.1245 5.42395 13.5979 5.42395C13.0644 5.42395 12.5309 5.4187 11.9976 5.42752C11.8584 5.42982 11.8176 5.38687 11.8298 5.25598C11.85 5.04134 11.7395 4.76011 11.8764 4.63001ZM9.74032 11.6408C9.20399 12.3733 8.4396 12.6979 7.56571 12.7212C6.2676 12.7557 4.96788 12.7283 3.66888 12.7332C3.534 12.7337 3.4959 12.697 3.49608 12.5617C3.49988 9.79538 3.49984 7.02904 3.49617 4.26271C3.49599 4.12951 3.53026 4.08898 3.66728 4.08951C4.95945 4.09453 6.25169 4.0866 7.54383 4.09498C8.21511 4.09933 8.84693 4.23519 9.3399 4.74341C9.91183 5.33303 10.096 6.49099 9.73074 7.2258C9.5404 7.60869 9.22105 7.83204 8.76576 7.95605C9.49825 8.03015 9.88563 8.44017 10.0712 9.07166C10.1581 9.36731 10.2026 9.67036 10.1991 9.97834C10.1924 10.572 10.1025 11.1462 9.74032 11.6408ZM16.4943 9.77171C16.4914 9.9027 16.4265 9.90804 16.3269 9.90767C15.6774 9.90525 15.0278 9.90643 14.3783 9.90646C13.7287 9.90649 13.0792 9.91058 12.4297 9.90322C12.2912 9.90165 12.262 9.94255 12.2684 10.0746C12.3139 11.0136 12.9799 11.5502 13.953 11.4229C14.1838 11.3927 14.4094 11.3482 14.6103 11.2173C14.8021 11.0922 14.9416 10.9305 14.9766 10.7015C14.9925 10.5969 15.034 10.5697 15.1349 10.5711C15.5246 10.5764 15.9144 10.5768 16.304 10.5709C16.4085 10.5694 16.4238 10.6022 16.42 10.6998C16.3883 11.5115 16.0022 12.102 15.2756 12.4466C14.3871 12.8679 13.4518 12.9009 12.5175 12.6322C11.4641 12.3292 10.8776 11.5713 10.6383 10.5388C10.4085 9.54727 10.5416 8.59052 11.027 7.69198C11.4692 6.87326 12.17 6.41391 13.0861 6.28184C13.6254 6.2041 14.1656 6.2115 14.6887 6.38341C15.5437 6.66437 16.047 7.28122 16.3086 8.11537C16.4777 8.6547 16.5066 9.21068 16.4943 9.77171ZM14.0395 10.8473C14.0219 10.9577 13.9984 11.0195 13.8772 11.0278L14.0395 10.8473Z" fill="#5F5F5F"/>
</svg>
