<svg width="19" height="18" viewBox="0 0 19 18" fill="none" xmlns="http://www.w3.org/2000/svg">
<path d="M17.9638 15.0812C17.9771 15.0276 17.9562 14.9567 18.0216 14.9199C18.0216 10.6682 18.0216 6.41652 18.0216 2.16483C17.93 1.90861 17.8905 1.6364 17.7588 1.39184C17.3004 0.540509 16.5886 0.0783421 15.6196 0.00398004C15.5583 -0.000720471 15.4965 0.000295859 15.435 0.000293316C11.4278 0.000138325 7.42053 -0.00037492 3.41331 0.000486418C2.25915 0.00073542 1.32541 0.654279 0.957958 1.715C0.866343 1.97946 0.827121 2.2524 0.827149 2.53184C0.827526 6.5279 0.825727 10.524 0.828412 14.52C0.829234 15.7416 1.62791 16.7209 2.8302 16.9983C2.87866 17.0095 2.94603 16.9862 2.97666 17.0513C4.79012 17.0513 6.60358 17.0513 8.41703 17.0513C8.41703 15.0977 8.4154 13.1441 8.42053 11.1905C8.42089 11.0528 8.38963 11.0175 8.24919 11.0197C7.67849 11.0287 7.10752 11.0204 6.53673 11.0261C6.42729 11.0272 6.39892 10.9988 6.39947 10.8901C6.40407 9.9799 6.40407 9.06968 6.39947 8.15951C6.39891 8.05075 6.42732 8.02247 6.53673 8.02352C7.11872 8.02913 7.70083 8.02311 8.28281 8.02885C8.39308 8.02994 8.4206 8.00036 8.41965 7.89237C8.41424 7.28192 8.41602 6.6714 8.41723 6.0609C8.42072 4.31487 9.7451 3.0008 11.5055 2.99771C12.4513 2.99606 13.3971 2.9999 14.3429 2.99437C14.4659 2.99365 14.4998 3.01934 14.4989 3.14629C14.4925 4.04534 14.4928 4.94448 14.4986 5.84354C14.4994 5.96581 14.4728 5.99893 14.3452 5.99805C13.4274 5.99175 12.5095 5.99729 11.5917 5.99158C11.4681 5.99081 11.4343 6.01749 11.436 6.14391C11.4439 6.721 11.4435 7.29831 11.4362 7.87541C11.4347 7.99868 11.4634 8.03035 11.5902 8.02948C12.4968 8.02326 13.4034 8.02616 14.3101 8.02616C14.3657 8.02616 14.4213 8.02616 14.4939 8.02616C14.4221 8.45967 14.3525 8.88286 14.2819 9.30586C14.196 9.81968 14.1071 10.333 14.0244 10.8473C14.005 10.9684 13.9788 11.0313 13.8234 11.0288C13.0792 11.0168 12.3347 11.0268 11.5905 11.0201C11.4642 11.019 11.4361 11.0503 11.4364 11.1739C11.4408 13.133 11.4395 15.0921 11.4395 17.0513C12.8947 17.0513 14.3499 17.0513 15.8052 17.0513C15.9626 17.0101 16.1238 16.9793 16.2769 16.9259C17.1734 16.6132 17.7363 15.9984 17.9638 15.0812Z" fill="#5F5F5F"/>
</svg>
