<svg width="18" height="18" viewBox="0 0 18 18" fill="none" xmlns="http://www.w3.org/2000/svg">
<path d="M2.72016 16.7454C3.26299 16.9712 3.83616 17.0511 4.42369 17.0506C7.20966 17.0486 9.99565 17.0549 12.7816 17.0478C14.4823 17.0435 15.7762 16.3057 16.6426 14.8569C17.0262 14.2155 17.1918 13.5046 17.1921 12.759C17.1934 9.93512 17.1981 7.11127 17.1907 4.28745C17.1858 2.40141 16.0041 0.798234 14.1991 0.204265C13.934 0.117023 13.6601 0.0606361 13.3814 0.0313946C13.3512 0.0282253 13.3122 0.0449419 13.2974 0C10.141 0 6.98451 0 3.82805 0C3.60822 0.093593 3.36656 0.0927547 3.13943 0.161425C1.79001 0.569351 0.846402 1.41801 0.302968 2.70618C0.166737 3.0291 0.088652 3.36832 0.0370056 3.7139C0.0325416 3.74377 0.044326 3.78308 0 3.79623C0 6.94865 0 10.1011 0 13.2535C0.0942496 13.4719 0.0938013 13.7118 0.163022 13.9374C0.57262 15.2722 1.42649 16.2075 2.72016 16.7454ZM13.2543 2.84143C13.8431 2.84338 14.3399 3.34134 14.3273 3.91705C14.3143 4.51115 13.8276 4.9792 13.2346 4.96787C12.6366 4.95644 12.168 4.47191 12.1834 3.88083C12.1983 3.30535 12.6783 2.83951 13.2543 2.84143ZM8.58453 4.97187C10.5379 4.94742 12.1628 6.55014 12.1791 8.51734C12.1952 10.4595 10.5751 12.0709 8.59951 12.0778C6.63452 12.0848 5.01129 10.476 5.01355 8.52385C5.01581 6.57203 6.59955 4.99671 8.58453 4.97187Z" fill="#5F5F5F"/>
</svg>
