<svg width="26" height="26" viewBox="0 0 26 26" fill="none" xmlns="http://www.w3.org/2000/svg">
<path d="M25.3177 20.0581L20.0553 16.5484C19.3874 16.1066 18.4922 16.252 17.9985 16.8825L16.4656 18.8535C16.2686 19.1133 15.9105 19.1887 15.6255 19.0303L15.3339 18.8696C14.3673 18.3427 13.1645 17.6867 10.7413 15.2624C8.31799 12.838 7.66073 11.6343 7.13385 10.6694L6.97396 10.3778C6.81346 10.0928 6.88739 9.73316 7.14725 9.53457L9.11686 8.002C9.74707 7.50819 9.89264 6.61319 9.45136 5.94512L5.94188 0.682247C5.48964 0.0019325 4.58231 -0.202294 3.88219 0.218599L1.68161 1.54059C0.990173 1.94711 0.482893 2.60549 0.26614 3.37776C-0.526286 6.26527 0.0698484 11.2487 7.41031 18.5905C13.2495 24.4296 17.5965 25.9999 20.5843 25.9999C21.2719 26.0029 21.9569 25.9134 22.6207 25.7339C23.3931 25.5174 24.0515 25.01 24.4577 24.3183L25.781 22.1189C26.2024 21.4186 25.9983 20.5106 25.3177 20.0581Z" fill="white"/>
</svg>
