<svg width="84" height="18" viewBox="0 0 84 18" fill="none" xmlns="http://www.w3.org/2000/svg">
<path d="M5.47587 16.7925V17.3443H0.192233V12.4477H5.38768V12.9994H0.688143V14.5856H5.47587V15.1029H0.688143V16.7925H5.47587Z" fill="#878787"/>
<path d="M51.825 16.7925V17.3443H46.5414V12.4477H51.7368V12.9994H47.0373V14.5856H51.825V15.1029H47.0373V16.7925H51.825Z" fill="#878787"/>
<path d="M15.7203 17.3443V12.4477H20.906V12.9994H16.4084V14.6339H20.906V15.1511H16.4084V17.3443H15.7203Z" fill="#878787"/>
<path d="M30.9647 17.3443V12.4477H36.1504V12.9994H31.6528V14.6339H36.1504V15.1511H31.6528V17.3443H30.9647Z" fill="#878787"/>
<path d="M62.5362 13.189C62.8428 12.8815 63.2317 12.742 63.5794 12.6235C63.9907 12.4833 64.4575 12.4132 64.9799 12.4132C65.6003 12.4132 66.1323 12.5132 66.5765 12.7132C67.0205 12.9132 67.3503 13.1696 67.5658 13.4822L66.8703 13.7994C66.7332 13.5925 66.5585 13.4282 66.3463 13.3063C66.134 13.1846 65.9055 13.0983 65.6607 13.0477C65.4159 12.9972 65.1758 12.9718 64.9407 12.9718C64.5554 12.9718 64.2143 13.027 63.9172 13.1374C63.6201 13.2477 63.3703 13.3949 63.168 13.5787C63.052 13.6841 62.8488 13.8778 62.7125 14.1959C62.4128 14.8952 62.7158 15.5585 62.7419 15.6132C62.8939 15.9324 63.1095 16.1201 63.2463 16.2339C63.4618 16.4132 63.7165 16.5558 64.0103 16.6615C64.3041 16.7673 64.6239 16.8201 64.9702 16.8201C65.2116 16.8201 65.4599 16.7903 65.7145 16.7305C65.9692 16.6708 66.2075 16.5777 66.4296 16.4511C66.6515 16.3248 66.8278 16.1604 66.9585 15.958L67.6931 16.2408C67.5494 16.4846 67.3273 16.6914 67.0271 16.8615C66.7266 17.0317 66.3919 17.1604 66.0231 17.2477C65.6541 17.3351 65.29 17.3787 64.931 17.3787C64.4543 17.3787 64.0167 17.3064 63.6186 17.1616C63.3373 17.0593 62.9123 16.9067 62.5852 16.5822C61.7557 15.7593 61.7238 14.004 62.5362 13.189Z" fill="#878787"/>
<path d="M83.6093 12.9994H81.2095V17.3443H80.328V12.9994H77.9283V12.4477H83.6093V12.9994Z" fill="#878787"/>
<path d="M14.591 0.076869L9.76199 9.37168L12.0896 9.37168L13.0599 7.44758H16.4597L17.4354 5.5125L14.0357 5.5125L15.4751 2.65788L15.8478 1.8172L16.2083 2.65788L19.4665 9.37168H21.852L17.2211 0.0768688L14.591 0.076869Z" fill="#878787"/>
<path d="M30.1604 7.15745L27.0188 0.0767974L24.1798 0.0767977L24.1798 9.37161H26.2742L26.2742 3.1673L29.0431 9.37161H31.2076L34.0588 3.1673V9.37161L36.1647 9.37161L36.1647 0.0767968L33.3721 0.076797L30.1604 7.15745Z" fill="#878787"/>
<path d="M53.0373 6.31677L47.7776 0.0767985L45.3571 0.0767987L45.3571 9.37161H47.4865V2.9897L52.8513 9.37161H55.1432V0.076798L53.0373 0.0767982L53.0373 6.31677Z" fill="#878787"/>
<path d="M81.0344 0.0768641L77.8226 7.15752L74.681 0.0768646L71.8419 0.0768648V9.37168L73.9364 9.37168V3.16736L76.7054 9.37168H78.8698L81.721 3.16736L81.721 9.37168L83.8269 9.37168V0.0768639L81.0344 0.0768641Z" fill="#878787"/>
<path d="M62.1259 0.0768655L57.2969 9.37168H59.6238L60.5948 7.44757H63.9945L64.9703 5.5125L61.5706 5.5125L63.01 2.65788L63.3827 1.8172L63.7432 2.65788L67.0014 9.37168H69.3869L64.7554 0.0768653L62.1259 0.0768655Z" fill="#878787"/>
<path d="M41.8658 0.0650045H39.6205V9.37147H41.8658V0.0650045Z" fill="#878787"/>
<path d="M2.23391 0L0 1.56486e-07L3.15261e-06 9.39081L8.2651 9.39081V7.50099L2.23391 7.50099L2.23391 0Z" fill="#878787"/>
</svg>
