<svg width="114" height="24" viewBox="0 0 114 24" fill="none" xmlns="http://www.w3.org/2000/svg">
<path d="M50.2434 23.3899V16.3055L47.0688 21.8087H46.5253L43.3386 16.3055V23.3899H42.4739V14.6876H43.3633L46.7848 20.6443L50.2311 14.6876H51.1081V23.3899H50.2434Z" fill="#878787"/>
<path d="M52.5533 21.5636C52.5533 21.1659 52.6685 20.8228 52.8991 20.5344C53.1295 20.2462 53.4488 20.0229 53.8562 19.8646C54.2639 19.7063 54.7351 19.6271 55.2706 19.6271C55.5835 19.6271 55.9087 19.6515 56.2465 19.7006C56.584 19.7496 56.8845 19.8231 57.1481 19.9212V19.3835C57.1481 18.8476 56.9877 18.4211 56.6665 18.1044C56.3453 17.7876 55.9006 17.6293 55.3325 17.6293C54.9866 17.6293 54.6467 17.6927 54.3132 17.8192C53.9797 17.946 53.6317 18.1318 53.2696 18.3769L52.9484 17.7885C53.3684 17.5026 53.7801 17.2881 54.1836 17.1451C54.587 17.0022 54.999 16.9306 55.4187 16.9306C56.2095 16.9306 56.835 17.1539 57.2963 17.6004C57.7576 18.0471 57.9882 18.6643 57.9882 19.4518V22.387C57.9882 22.5008 58.0128 22.584 58.0621 22.6367C58.1117 22.6895 58.1896 22.7199 58.2968 22.728V23.3899C58.2062 23.398 58.128 23.4061 58.0621 23.4143C57.9962 23.4224 57.9467 23.4224 57.914 23.4143C57.708 23.4061 57.5516 23.3408 57.4447 23.2183C57.3375 23.0958 57.2797 22.9651 57.2716 22.8261L57.2593 22.3603C56.9711 22.728 56.5963 23.012 56.1353 23.2122C55.674 23.4123 55.2047 23.5124 54.7271 23.5124C54.3153 23.5124 53.9427 23.4251 53.6092 23.2506C53.2757 23.076 53.0164 22.8406 52.8311 22.5442C52.6457 22.2478 52.5533 21.921 52.5533 21.5636ZM56.8639 22.0491C56.9545 21.9358 57.0246 21.8265 57.0739 21.7213C57.1235 21.6161 57.1481 21.523 57.1481 21.4418V20.5187C56.8682 20.4136 56.5778 20.3325 56.2773 20.2759C55.9767 20.2192 55.674 20.1909 55.3694 20.1909C54.7683 20.1909 54.2824 20.3082 53.9119 20.5431C53.5415 20.7779 53.3561 21.0977 53.3561 21.5025C53.3561 21.7375 53.4177 21.9581 53.5415 22.1646C53.6649 22.371 53.8458 22.5412 54.0847 22.6747C54.3237 22.8084 54.6036 22.8751 54.9248 22.8751C55.3282 22.8751 55.7048 22.7983 56.0549 22.6443C56.4048 22.4905 56.6745 22.2921 56.8639 22.0491Z" fill="#878787"/>
<path d="M65.2141 23.3899H64.3741V19.846C64.3741 19.0991 64.2629 18.5532 64.0406 18.2082C63.8182 17.863 63.4681 17.6905 62.9908 17.6905C62.6613 17.6905 62.3361 17.7696 62.0149 17.9276C61.6937 18.0858 61.4116 18.3004 61.1689 18.5721C60.926 18.8436 60.7508 19.1537 60.6439 19.5022V23.3899H59.8039V17.0287H60.5697V18.4784C60.7428 18.1697 60.9691 17.8996 61.249 17.6679C61.529 17.4364 61.8461 17.2555 62.2003 17.1256C62.5541 16.9957 62.9206 16.9306 63.2996 16.9306C63.6535 16.9306 63.9543 16.9957 64.2013 17.1256C64.4483 17.2555 64.646 17.4404 64.7941 17.6802C64.9425 17.9199 65.0494 18.2083 65.1153 18.5454C65.1812 18.8827 65.2141 19.2584 65.2141 19.6727V23.3899Z" fill="#878787"/>
<path d="M66.9433 20.765V17.0287H67.7831V20.6168C67.7831 21.341 67.9087 21.8821 68.16 22.24C68.411 22.5982 68.7836 22.7771 69.2778 22.7771C69.607 22.7771 69.9263 22.706 70.2349 22.5638C70.5438 22.4215 70.8176 22.2185 71.0565 21.9541C71.2952 21.69 71.4765 21.3833 71.6 21.0338V17.0287H72.4398V22.3863C72.4398 22.5004 72.4645 22.5837 72.514 22.6364C72.5633 22.6893 72.6375 22.7199 72.7364 22.728V23.3899C72.6375 23.398 72.559 23.4041 72.5017 23.4082C72.4438 23.4123 72.3905 23.4143 72.341 23.4143C72.1762 23.398 72.0343 23.333 71.9148 23.2191C71.7953 23.1051 71.7316 22.9669 71.7235 22.804L71.6989 21.9495C71.4187 22.4379 71.038 22.8205 70.5561 23.0972C70.0745 23.3742 69.5535 23.5124 68.9936 23.5124C68.3183 23.5124 67.808 23.2805 67.4619 22.8165C67.1161 22.3524 66.9433 21.6686 66.9433 20.765Z" fill="#878787"/>
<path d="M74.6509 23.3899V17.666H73.7615V17.0041H74.6509V16.8325C74.6509 16.3097 74.7269 15.8602 74.8794 15.4843C75.0318 15.1086 75.2498 14.8205 75.534 14.6202C75.8183 14.42 76.1536 14.3199 76.5407 14.3199C76.796 14.3199 77.043 14.3566 77.2819 14.4303C77.5206 14.5037 77.7266 14.6018 77.8994 14.7244L77.6401 15.325C77.5329 15.2351 77.3931 15.1656 77.2201 15.1166C77.0473 15.0675 76.8742 15.0431 76.7015 15.0431C76.3141 15.0431 76.0157 15.1943 75.8057 15.4965C75.5959 15.7989 75.4909 16.2362 75.4909 16.8081V17.0041H77.2696V17.666H75.4909V23.3899H74.6509Z" fill="#878787"/>
<path d="M77.8747 21.5636C77.8747 21.1659 77.9899 20.8228 78.2206 20.5344C78.451 20.2462 78.7703 20.0229 79.1777 19.8646C79.5854 19.7063 80.0566 19.6271 80.5921 19.6271C80.905 19.6271 81.2302 19.6515 81.5679 19.7006C81.9055 19.7496 82.206 19.8231 82.4696 19.9212V19.3835C82.4696 18.8476 82.3092 18.4211 81.988 18.1044C81.6668 17.7876 81.2221 17.6293 80.654 17.6293C80.3081 17.6293 79.9682 17.6927 79.6347 17.8192C79.3012 17.946 78.9532 18.1318 78.591 18.3769L78.2699 17.7885C78.6899 17.5026 79.1016 17.2881 79.505 17.1451C79.9085 17.0022 80.3204 16.9306 80.7402 16.9306C81.531 16.9306 82.1565 17.1539 82.6178 17.6004C83.079 18.0471 83.3097 18.6643 83.3097 19.4518V22.387C83.3097 22.5008 83.3343 22.584 83.3836 22.6367C83.4332 22.6895 83.5111 22.7199 83.6183 22.728V23.3899C83.5277 23.398 83.4495 23.4061 83.3836 23.4143C83.3177 23.4224 83.2682 23.4224 83.2355 23.4143C83.0295 23.4061 82.873 23.3408 82.7662 23.2183C82.659 23.0958 82.6011 22.9651 82.5931 22.8261L82.5808 22.3603C82.2925 22.728 81.9178 23.012 81.4568 23.2122C80.9955 23.4123 80.5262 23.5124 80.0486 23.5124C79.6368 23.5124 79.2642 23.4251 78.9307 23.2506C78.5972 23.076 78.3379 22.8406 78.1525 22.5442C77.9672 22.2478 77.8747 21.921 77.8747 21.5636ZM82.1854 22.0491C82.2759 21.9358 82.3461 21.8265 82.3954 21.7213C82.445 21.6161 82.4696 21.523 82.4696 21.4418V20.5187C82.1897 20.4136 81.8993 20.3325 81.5988 20.2759C81.2982 20.2192 80.9955 20.1909 80.6909 20.1909C80.0898 20.1909 79.6039 20.3082 79.2334 20.5431C78.8629 20.7779 78.6776 21.0977 78.6776 21.5025C78.6776 21.7375 78.7392 21.9581 78.8629 22.1646C78.9864 22.371 79.1672 22.5412 79.4062 22.6747C79.6451 22.8084 79.9251 22.8751 80.2463 22.8751C80.6497 22.8751 81.0263 22.7983 81.3764 22.6443C81.7263 22.4905 81.996 22.2921 82.1854 22.0491Z" fill="#878787"/>
<path d="M87.9166 23.5124C87.4473 23.5124 87.0171 23.425 86.626 23.2505C86.2346 23.0758 85.8928 22.8339 85.6008 22.5252C85.3083 22.2165 85.0819 21.8629 84.9212 21.4648C84.7608 21.0667 84.6804 20.6442 84.6804 20.1973C84.6804 19.5959 84.8165 19.0474 85.0881 18.5518C85.3597 18.0562 85.7385 17.662 86.2244 17.3693C86.7104 17.0769 87.2702 16.9306 87.9043 16.9306C88.5054 16.9306 89.0366 17.0675 89.4979 17.3411C89.9589 17.615 90.3007 17.9847 90.523 18.4504L89.7079 18.7078C89.5265 18.3811 89.2734 18.1257 88.9482 17.9417C88.6227 17.7579 88.2627 17.666 87.8673 17.666C87.439 17.666 87.0479 17.7756 86.6937 17.9946C86.3396 18.2136 86.0578 18.5137 85.8478 18.8951C85.6378 19.2764 85.5328 19.7104 85.5328 20.1973C85.5328 20.676 85.6397 21.1099 85.854 21.4993C86.068 21.8889 86.3519 22.1991 86.7063 22.4302C87.0602 22.6616 87.4513 22.7771 87.8796 22.7771C88.1596 22.7771 88.4293 22.728 88.6886 22.6299C88.9482 22.5319 89.1745 22.3992 89.368 22.2316C89.5614 22.0643 89.6913 21.8823 89.7572 21.6862L90.5846 21.9314C90.4695 22.2337 90.2779 22.5055 90.0103 22.7464C89.7427 22.9876 89.4298 23.1754 89.0717 23.3103C88.7135 23.445 88.3283 23.5124 87.9166 23.5124Z" fill="#878787"/>
<path d="M94.9944 23.1325C94.9285 23.157 94.8256 23.202 94.6855 23.2673C94.5454 23.3329 94.377 23.3899 94.1793 23.4389C93.9816 23.488 93.7673 23.5124 93.5369 23.5124C93.298 23.5124 93.0737 23.4672 92.8637 23.377C92.6537 23.2869 92.4871 23.1493 92.3633 22.9647C92.2398 22.7801 92.1782 22.5525 92.1782 22.2816V17.6905H91.2889V17.0287H92.1782V14.8715H93.018V17.0287H94.5005V17.6905H93.018V22.0506C93.0346 22.2804 93.1187 22.453 93.2714 22.5679C93.4236 22.6828 93.5988 22.7402 93.7962 22.7402C94.0268 22.7402 94.2366 22.7016 94.4262 22.6238C94.6156 22.5463 94.7308 22.4912 94.7721 22.4584L94.9944 23.1325Z" fill="#878787"/>
<path d="M95.9826 20.765V17.0287H96.8224V20.6168C96.8224 21.341 96.948 21.8821 97.1993 22.24C97.4503 22.5982 97.8229 22.7771 98.3171 22.7771C98.6464 22.7771 98.9657 22.706 99.2743 22.5638C99.5831 22.4215 99.8569 22.2185 100.096 21.9541C100.335 21.69 100.516 21.3833 100.639 21.0338V17.0287H101.479V22.3863C101.479 22.5004 101.504 22.5837 101.553 22.6364C101.603 22.6893 101.677 22.7199 101.776 22.728V23.3899C101.677 23.398 101.598 23.4041 101.541 23.4082C101.483 23.4123 101.43 23.4143 101.38 23.4143C101.216 23.398 101.074 23.333 100.954 23.2191C100.835 23.1051 100.771 22.9669 100.763 22.804L100.738 21.9495C100.458 22.4379 100.077 22.8205 99.5954 23.0972C99.1138 23.3742 98.5928 23.5124 98.0329 23.5124C97.3576 23.5124 96.8473 23.2805 96.5012 22.8165C96.1554 22.3524 95.9826 21.6686 95.9826 20.765Z" fill="#878787"/>
<path d="M106.593 17.7396C106.032 17.7561 105.541 17.9112 105.117 18.2053C104.692 18.4994 104.394 18.904 104.221 19.4187V23.3899H103.381V17.0287H104.172V18.5362C104.394 18.087 104.688 17.7232 105.055 17.4453C105.421 17.1677 105.81 17.0123 106.222 16.9796C106.304 16.9715 106.376 16.9674 106.438 16.9674C106.5 16.9674 106.551 16.9715 106.593 16.9796V17.7396Z" fill="#878787"/>
<path d="M110.298 23.5124C109.837 23.5124 109.409 23.425 109.014 23.2499C108.619 23.0749 108.277 22.8347 107.989 22.5295C107.7 22.2242 107.476 21.8721 107.315 21.4733C107.155 21.0743 107.075 20.6469 107.075 20.1909C107.075 19.5989 107.212 19.0556 107.488 18.5607C107.764 18.066 108.145 17.6707 108.631 17.3748C109.117 17.0786 109.669 16.9306 110.286 16.9306C110.92 16.9306 111.474 17.0808 111.947 17.381C112.421 17.6814 112.794 18.077 113.065 18.568C113.337 19.0591 113.473 19.5967 113.473 20.1809C113.473 20.2459 113.473 20.3086 113.473 20.3695C113.473 20.4305 113.469 20.4771 113.461 20.5096H107.952C107.993 20.9649 108.122 21.3695 108.341 21.723C108.559 22.0765 108.843 22.3571 109.193 22.5643C109.543 22.7715 109.924 22.8751 110.336 22.8751C110.755 22.8751 111.153 22.769 111.527 22.5564C111.902 22.3441 112.164 22.0662 112.312 21.723L113.041 21.919C112.909 22.2215 112.707 22.4952 112.436 22.7402C112.164 22.9855 111.844 23.1754 111.478 23.3103C111.112 23.445 110.718 23.5124 110.298 23.5124ZM107.927 19.909H112.683C112.65 19.4482 112.524 19.0439 112.306 18.6961C112.087 18.3483 111.803 18.0754 111.453 17.8774C111.103 17.6794 110.718 17.5802 110.298 17.5802C109.879 17.5802 109.496 17.6794 109.15 17.8774C108.804 18.0754 108.522 18.3504 108.304 18.7021C108.085 19.0539 107.96 19.4562 107.927 19.909Z" fill="#878787"/>
<path d="M43.3054 0.245076L46.4428 7.88111L49.5678 0.245076H50.4695L46.8379 8.94741H46.0474L42.4035 0.245076H43.3054Z" fill="#878787"/>
<path d="M50.3955 7.12116C50.3955 6.72338 50.5107 6.38035 50.7414 6.09195C50.9717 5.80368 51.291 5.5804 51.6985 5.42211C52.1062 5.26382 52.5774 5.18461 53.1129 5.18461C53.4257 5.18461 53.7509 5.20906 54.0887 5.25811C54.4263 5.30715 54.7268 5.38064 54.9904 5.47873V4.941C54.9904 4.40512 54.8299 3.97863 54.5088 3.66192C54.1876 3.34508 53.7429 3.18679 53.1747 3.18679C52.8289 3.18679 52.489 3.25018 52.1555 3.37671C51.822 3.5035 51.474 3.6893 51.1118 3.93438L50.7906 3.34601C51.2107 3.06013 51.6224 2.84562 52.0258 2.70262C52.4292 2.55974 52.8412 2.48811 53.261 2.48811C54.0518 2.48811 54.6772 2.71139 55.1385 3.15795C55.5998 3.60464 55.8305 4.22185 55.8305 5.00931V7.94451C55.8305 8.05827 55.8551 8.14147 55.9044 8.19423C55.9539 8.247 56.0319 8.27743 56.139 8.28554V8.94741C56.0485 8.95551 55.9703 8.96362 55.9044 8.97186C55.8385 8.97997 55.7889 8.97997 55.7563 8.97186C55.5503 8.96362 55.3938 8.89836 55.2869 8.77583C55.1798 8.65329 55.1219 8.52264 55.1139 8.38362L55.1016 7.91779C54.8133 8.28554 54.4386 8.56956 53.9776 8.76971C53.5163 8.96987 53.047 9.06994 52.5693 9.06994C52.1576 9.06994 51.785 8.98263 51.4515 8.80812C51.118 8.63348 50.8587 8.39811 50.6733 8.10173C50.4879 7.80536 50.3955 7.47854 50.3955 7.12116ZM54.7062 7.60666C54.7967 7.4933 54.8669 7.38405 54.9162 7.27879C54.9658 7.17366 54.9904 7.08049 54.9904 6.99929V6.07627C54.7105 5.97114 54.4201 5.89007 54.1195 5.83345C53.819 5.7767 53.5163 5.74839 53.2117 5.74839C52.6106 5.74839 52.1247 5.86575 51.7542 6.10059C51.3837 6.33543 51.1983 6.6552 51.1983 7.06003C51.1983 7.295 51.26 7.51562 51.3837 7.72216C51.5072 7.92856 51.688 8.09868 51.927 8.23225C52.1659 8.36595 52.4458 8.43267 52.767 8.43267C53.1705 8.43267 53.5471 8.35585 53.8972 8.20181C54.247 8.04804 54.5168 7.84961 54.7062 7.60666Z" fill="#878787"/>
<path d="M60.8574 3.2971C60.2973 3.31358 59.8055 3.46868 59.3814 3.7628C58.9571 4.05691 58.6587 4.46148 58.4859 4.97622V8.94741H57.6458V2.58619H58.4363V4.09373C58.6587 3.64451 58.9531 3.28075 59.3195 3.00285C59.686 2.72521 60.0749 2.56984 60.4869 2.53715C60.5692 2.52904 60.6412 2.52492 60.7031 2.52492C60.7647 2.52492 60.8162 2.52904 60.8574 2.53715V3.2971Z" fill="#878787"/>
<path d="M64.5632 9.06994C64.1019 9.06994 63.6739 8.98249 63.2787 8.80746C62.8834 8.63242 62.5415 8.39226 62.2536 8.08698C61.9651 7.7817 61.7409 7.42964 61.5801 7.03079C61.4197 6.63181 61.3393 6.20439 61.3393 5.74839C61.3393 5.15643 61.4773 4.61312 61.7532 4.11818C62.0291 3.62351 62.4097 3.22825 62.8957 2.93228C63.3816 2.63616 63.9334 2.48811 64.5509 2.48811C65.1849 2.48811 65.7386 2.63829 66.2122 2.93852C66.6856 3.23889 67.0585 3.63454 67.3301 4.12549C67.602 4.61658 67.7378 5.15417 67.7378 5.73842C67.7378 5.80341 67.7378 5.86614 67.7378 5.92702C67.7378 5.98802 67.7335 6.03467 67.7255 6.0671H62.2163C62.2576 6.52243 62.3872 6.92699 62.6056 7.28052C62.8236 7.63404 63.1076 7.9146 63.4577 8.1218C63.8078 8.329 64.1884 8.43267 64.6004 8.43267C65.0202 8.43267 65.4175 8.32648 65.7922 8.11396C66.167 7.90158 66.4284 7.62368 66.5766 7.28052L67.3054 7.47655C67.1736 7.77904 66.9719 8.05269 66.7003 8.29777C66.4284 8.54298 66.1091 8.7329 65.7429 8.8678C65.3765 9.00256 64.9832 9.06994 64.5632 9.06994ZM62.1917 5.4665H66.9473C66.9143 5.00572 66.7887 4.60142 66.5704 4.25361C66.3521 3.9058 66.0681 3.63295 65.7183 3.43492C65.3682 3.23689 64.9832 3.13775 64.5632 3.13775C64.1434 3.13775 63.7604 3.23689 63.4146 3.43492C63.0687 3.63295 62.7866 3.90793 62.5683 4.25959C62.3503 4.61139 62.2244 5.01369 62.1917 5.4665Z" fill="#878787"/>
<path d="M74.4446 8.94741H73.6045V5.4035C73.6045 4.65658 73.4934 4.11074 73.271 3.76572C73.0487 3.42057 72.6986 3.24806 72.2212 3.24806C71.8917 3.24806 71.5665 3.32713 71.2454 3.48516C70.9242 3.64331 70.6421 3.85796 70.3994 4.12961C70.1564 4.40114 69.9813 4.7112 69.8744 5.05968V8.94741H69.0343V2.58619H69.8002V4.03591C69.9732 3.72718 70.1996 3.45712 70.4795 3.22546C70.7594 2.99394 71.0766 2.81306 71.4307 2.68308C71.7846 2.55323 72.151 2.48811 72.5301 2.48811C72.884 2.48811 73.1848 2.55323 73.4318 2.68308C73.6787 2.81306 73.8764 2.99793 74.0246 3.23769C74.173 3.47745 74.2799 3.76585 74.3458 4.1029C74.4117 4.44021 74.4446 4.81593 74.4446 5.2302V8.94741Z" fill="#878787"/>
<path d="M76.4705 10.9085C76.5857 10.9165 76.6969 10.9226 76.804 10.9269C76.9109 10.9309 76.9892 10.9248 77.0387 10.9085C77.1376 10.8921 77.2321 10.8352 77.3227 10.7375C77.4132 10.6398 77.5203 10.4526 77.6438 10.1757C77.7673 9.89887 77.9404 9.49192 78.1627 8.95472L75.3589 2.58619H76.2482L78.6074 8.09894L80.7812 2.58619H81.6213L78.2862 10.8005C78.2286 10.9552 78.1421 11.1001 78.0269 11.2344C77.9114 11.3689 77.7695 11.4747 77.6007 11.5523C77.4317 11.6296 77.2238 11.6725 76.9768 11.6807C76.9029 11.6887 76.8266 11.6908 76.7483 11.6868C76.6701 11.6826 76.5774 11.6725 76.4705 11.6561V10.9085Z" fill="#878787"/>
<path d="M85.3514 9.06994C84.8821 9.06994 84.4519 8.98249 84.0608 8.80799C83.6694 8.63335 83.3276 8.39147 83.0356 8.08273C82.7431 7.77399 82.5168 7.42046 82.356 7.02228C82.1956 6.62423 82.1152 6.20173 82.1152 5.75477C82.1152 5.15338 82.2513 4.60488 82.5229 4.10928C82.7945 3.61368 83.1733 3.21948 83.6593 2.92683C84.1452 2.63444 84.705 2.48811 85.3391 2.48811C85.9402 2.48811 86.4714 2.625 86.9327 2.89865C87.3937 3.17257 87.7355 3.54217 87.9579 4.00787L87.1427 4.26531C86.9614 3.93863 86.7082 3.68319 86.383 3.49925C86.0575 3.31544 85.6975 3.22347 85.3021 3.22347C84.8738 3.22347 84.4827 3.33312 84.1286 3.55214C83.7744 3.77117 83.4926 4.07127 83.2826 4.45257C83.0726 4.83387 82.9676 5.26794 82.9676 5.75477C82.9676 6.23349 83.0745 6.66743 83.2888 7.05684C83.5028 7.44638 83.7868 7.75658 84.1412 7.9877C84.495 8.21909 84.8861 8.33458 85.3145 8.33458C85.5944 8.33458 85.8641 8.28554 86.1234 8.18746C86.383 8.08937 86.6094 7.95673 86.8028 7.78914C86.9962 7.62182 87.1261 7.43987 87.192 7.2437L88.0195 7.48891C87.9043 7.79127 87.7127 8.06306 87.4451 8.30388C87.1775 8.5451 86.8647 8.7329 86.5065 8.8678C86.1484 9.00256 85.7631 9.06994 85.3514 9.06994Z" fill="#878787"/>
<path d="M89.3412 1.22565V0H90.1812V1.22565H89.3412ZM89.3412 8.94741V2.5616H90.1812V8.94741H89.3412Z" fill="#878787"/>
<path d="M91.515 7.12116C91.515 6.72338 91.6302 6.38035 91.8608 6.09195C92.0912 5.80368 92.4105 5.5804 92.8179 5.42211C93.2256 5.26382 93.6968 5.18461 94.2323 5.18461C94.5452 5.18461 94.8704 5.20906 95.2082 5.25811C95.5457 5.30715 95.8463 5.38064 96.1098 5.47873V4.941C96.1098 4.40512 95.9494 3.97863 95.6282 3.66192C95.307 3.34508 94.8624 3.18679 94.2942 3.18679C93.9484 3.18679 93.6084 3.25018 93.2749 3.37671C92.9414 3.5035 92.5934 3.6893 92.2313 3.93438L91.9101 3.34601C92.3301 3.06013 92.7418 2.84562 93.1453 2.70262C93.5487 2.55974 93.9607 2.48811 94.3804 2.48811C95.1712 2.48811 95.7967 2.71139 96.258 3.15795C96.7193 3.60464 96.9499 4.22185 96.9499 5.00931V7.94451C96.9499 8.05827 96.9745 8.14147 97.0238 8.19423C97.0734 8.247 97.1513 8.27743 97.2585 8.28554V8.94741C97.168 8.95551 97.0897 8.96362 97.0238 8.97186C96.9579 8.97997 96.9084 8.97997 96.8757 8.97186C96.6697 8.96362 96.5133 8.89836 96.4064 8.77583C96.2992 8.65329 96.2414 8.52264 96.2333 8.38362L96.221 7.91779C95.9328 8.28554 95.558 8.56956 95.097 8.76971C94.6357 8.96987 94.1664 9.06994 93.6888 9.06994C93.2771 9.06994 92.9044 8.98263 92.5709 8.80812C92.2374 8.63348 91.9781 8.39811 91.7928 8.10173C91.6074 7.80536 91.515 7.47854 91.515 7.12116ZM95.8256 7.60666C95.9162 7.4933 95.9864 7.38405 96.0356 7.27879C96.0852 7.17366 96.1098 7.08049 96.1098 6.99929V6.07627C95.8299 5.97114 95.5395 5.89007 95.239 5.83345C94.9384 5.7767 94.6357 5.74839 94.3311 5.74839C93.73 5.74839 93.2441 5.86575 92.8736 6.10059C92.5032 6.33543 92.3178 6.6552 92.3178 7.06003C92.3178 7.295 92.3794 7.51562 92.5032 7.72216C92.6267 7.92856 92.8075 8.09868 93.0464 8.23225C93.2854 8.36595 93.5653 8.43267 93.8865 8.43267C94.2899 8.43267 94.6665 8.35585 95.0166 8.20181C95.3665 8.04804 95.6362 7.84961 95.8256 7.60666Z" fill="#878787"/>
<path d="M30.578 20.2341L21.9715 0.39898L18.8288 7.22556L24.026 19.1597C24.026 19.1597 25.7917 22.6198 23.3042 22.6198V22.9889H33.3155V22.6198C32.5936 22.5537 31.6775 22.6804 30.578 20.2341Z" fill="#878787"/>
<path d="M10.2612 0.801191V0.39898H0V0.801191C0.849544 0.83425 1.66577 0.83425 2.73742 3.30262C2.73742 3.30262 3.51478 4.79025 11.5771 22.9889L14.57 16.4874L9.35054 4.366C9.35054 4.366 7.87356 0.801191 10.2612 0.801191Z" fill="#878787"/>
</svg>
