<svg width="110" height="25" viewBox="0 0 110 25" fill="none" xmlns="http://www.w3.org/2000/svg">
<path d="M90.0578 12.1555C88.4093 12.1388 87.0643 13.481 87.0391 15.1285C87.0133 16.8147 88.342 18.1841 90.0005 18.1902C91.7615 18.1966 93.0311 16.7315 93.0027 15.1825C93.0395 13.5805 91.7211 12.1723 90.0578 12.1555Z" fill="#878787"/>
<path d="M64.4291 12.1576C62.8279 12.1462 61.4591 13.4556 61.4431 15.1499C61.427 16.8452 62.7623 18.1811 64.4011 18.1904C66.0372 18.1996 67.4137 16.9035 67.4144 15.1742C67.415 13.4167 66.0065 12.1488 64.4291 12.1576Z" fill="#878787"/>
<path d="M0 0V24.5347H109.384V0H0ZM69.4846 18.2915C68.9325 19.1014 68.211 19.7208 67.3472 20.1746C66.7187 20.5048 66.0519 20.7143 65.3525 20.8178C65.0443 20.8634 64.7334 20.8905 64.5303 20.8832C63.3843 20.8816 62.4039 20.6471 61.4847 20.1636C60.9947 19.906 60.55 19.5835 60.1473 19.2004C59.6647 18.7412 59.2733 18.2141 58.9758 17.6181C58.6704 17.0064 58.4874 16.358 58.4265 15.6741C58.3438 14.7446 58.4869 13.8527 58.8556 12.9982C59.1047 12.4208 59.4446 11.9018 59.8689 11.4389C60.7923 10.4315 61.9332 9.82422 63.263 9.56659C63.5206 9.51671 63.7812 9.4872 64.044 9.47326C64.175 9.46631 64.3058 9.4588 64.437 9.45967C65.4118 9.46604 66.3413 9.67394 67.2178 10.1065C67.778 10.3829 68.2835 10.7394 68.7343 11.1761C69.3323 11.7553 69.7869 12.4302 70.0894 13.2081C70.2805 13.6999 70.3943 14.2098 70.4358 14.7372C70.538 16.0366 70.2146 17.2208 69.4846 18.2915ZM74.0808 20.4298C74.0808 20.4794 74.0799 20.5291 74.0792 20.5787C74.0785 20.629 74.0533 20.6549 74.0032 20.6557C73.9703 20.6562 73.9375 20.6573 73.9046 20.6573C73.0259 20.6573 72.1472 20.6574 71.2685 20.6572C71.1008 20.6572 71.1002 20.6566 71.1002 20.4837C71.1001 18.7001 71.1001 16.9166 71.1001 15.133C71.1001 13.3619 71.1 11.5907 71.1002 9.81957C71.1003 9.60588 71.0897 9.62554 71.2945 9.62539C72.1568 9.62477 73.0191 9.62512 73.8814 9.62513C73.9019 9.62513 73.9225 9.62496 73.943 9.62529C74.0781 9.62739 74.0788 9.62806 74.0807 9.76564C74.0811 9.7946 74.0809 9.82357 74.0809 9.85254C74.0809 13.3783 74.0809 16.904 74.0808 20.4298ZM85.367 20.6239C85.3386 20.679 85.2787 20.6563 85.2325 20.6563C84.1691 20.6576 83.1057 20.6561 82.0423 20.6593C81.9487 20.6596 81.8933 20.6302 81.8438 20.5499C80.9628 19.1203 80.079 17.6923 79.196 16.2639C79.0571 16.0393 78.9189 15.8143 78.7803 15.5896C78.7673 15.5685 78.7532 15.5481 78.7397 15.5274C78.7208 15.4982 78.6978 15.4897 78.668 15.5124C78.5534 15.5996 78.4385 15.6863 78.3243 15.774C78.2962 15.7956 78.2865 15.8268 78.2865 15.8617C78.2866 15.9031 78.2857 15.9445 78.2857 15.9859C78.2857 17.4755 78.2854 18.9651 78.286 20.4547C78.2861 20.6843 78.2763 20.6568 78.0827 20.657C77.2164 20.6578 76.3501 20.6574 75.4837 20.6572C75.3058 20.6572 75.3051 20.6568 75.3051 20.4813C75.3049 16.9186 75.3049 13.3559 75.3051 9.79325C75.3051 9.6262 75.3058 9.62536 75.4662 9.6253C76.3489 9.62501 77.2317 9.62516 78.1144 9.62519C78.1391 9.62519 78.1638 9.62444 78.1883 9.62621C78.2678 9.63196 78.2782 9.64163 78.2842 9.72323C78.2873 9.7644 78.2856 9.80594 78.2856 9.84731C78.2857 10.5508 78.2857 11.2542 78.2857 11.9576C78.2857 12.0068 78.2857 12.0559 78.2857 12.1235C78.3607 12.0997 78.3989 12.0618 78.4404 12.0304C79.4561 11.2591 80.4721 10.4883 81.4858 9.71443C81.5691 9.65084 81.6515 9.62325 81.7555 9.62343C83.2048 9.62594 84.6542 9.62512 86.1036 9.62519C86.1405 9.62519 86.1775 9.62536 86.2144 9.6266C86.2392 9.62743 86.2645 9.6294 86.2761 9.65736C86.2898 9.69042 86.2715 9.7128 86.2491 9.73266C86.2276 9.75175 86.2057 9.77054 86.1829 9.78793C85.1515 10.5726 84.1198 11.3567 83.0887 12.1416C82.457 12.6226 81.8261 13.1047 81.1949 13.5862C81.1003 13.6584 81.0998 13.6586 81.1639 13.7623C81.8691 14.9029 82.5747 16.0432 83.2795 17.184C83.9606 18.2862 84.641 19.3887 85.3209 20.4915C85.3457 20.5317 85.3945 20.5706 85.367 20.6239ZM94.6016 18.8966C93.9375 19.6289 93.1378 20.154 92.2171 20.4956C91.6832 20.6937 91.1321 20.8139 90.5641 20.859C90.3797 20.8737 90.1958 20.8807 90.011 20.8819C88.9618 20.8806 87.9711 20.6384 87.0431 20.1438C86.5912 19.9029 86.1787 19.6051 85.8021 19.256C85.2671 18.7601 84.8402 18.1841 84.5262 17.5238C84.2888 17.0246 84.1317 16.5005 84.0527 15.952C83.9965 15.5613 83.9854 15.169 84.0127 14.7768C84.0539 14.1869 84.1924 13.6187 84.4196 13.0729C84.7341 12.3175 85.1928 11.6621 85.7883 11.1078C86.6864 10.272 87.744 9.75799 88.9491 9.55158C89.3667 9.48004 89.7876 9.4455 90.2106 9.46095C90.992 9.48948 91.7477 9.64502 92.471 9.94984C93.1285 10.2269 93.7221 10.6063 94.2456 11.093C94.7012 11.5166 95.0823 12.0015 95.3812 12.5502C95.6983 13.1326 95.9083 13.7525 95.9982 14.4102C96.1422 15.4639 95.9998 16.4783 95.5593 17.4472C95.3165 17.9814 94.9952 18.4626 94.6016 18.8966ZM105.017 17.4473C104.999 17.9858 104.903 18.5075 104.659 18.9919C104.378 19.5506 103.953 19.9709 103.412 20.2755C102.956 20.5326 102.463 20.6836 101.951 20.7748C101.514 20.8526 101.073 20.8872 100.715 20.8818C99.8564 20.8843 99.0999 20.7823 98.3667 20.5294C97.5764 20.2569 96.8851 19.8255 96.3081 19.2142C96.1469 19.0433 95.9995 18.8603 95.8696 18.6636C95.7785 18.5259 95.778 18.5247 95.9043 18.4263C96.3165 18.1053 96.7293 17.785 97.1419 17.4646C97.3498 17.3031 97.5574 17.1412 97.7662 16.9808C97.8848 16.8897 97.887 16.8897 97.9796 17.0021C98.3822 17.4909 98.8806 17.8427 99.4729 18.0569C99.8108 18.1791 100.16 18.2477 100.521 18.2499C100.825 18.2517 101.128 18.2496 101.424 18.1696C101.572 18.1297 101.712 18.0728 101.838 17.9841C102.158 17.7599 102.194 17.2425 101.864 16.9892C101.661 16.8332 101.431 16.7374 101.194 16.6555C100.783 16.5134 100.361 16.4074 99.9453 16.279C99.4035 16.1115 98.8671 15.9295 98.3637 15.6621C97.8867 15.4088 97.4616 15.0914 97.1347 14.6514C96.848 14.2656 96.6748 13.8319 96.6062 13.358C96.5338 12.8582 96.5492 12.361 96.6888 11.8715C96.8783 11.2067 97.2585 10.6776 97.809 10.2704C98.3533 9.86802 98.97 9.64483 99.6303 9.53257C99.9954 9.4705 100.364 9.44631 100.733 9.46086C101.468 9.48976 102.184 9.61012 102.865 9.90329C103.483 10.1694 104.012 10.5586 104.449 11.0727C104.577 11.2228 104.575 11.2246 104.428 11.3527C103.868 11.8378 103.309 12.3228 102.749 12.8079C102.737 12.8187 102.725 12.8304 102.712 12.8409C102.605 12.9293 102.607 12.9268 102.506 12.8245C102.114 12.4305 101.647 12.1783 101.099 12.0902C100.759 12.0357 100.42 12.0422 100.083 12.1139C99.9209 12.1486 99.7726 12.2149 99.6366 12.3128C99.3264 12.536 99.3793 13.0443 99.62 13.2268C99.7263 13.3075 99.8417 13.3679 99.9646 13.4152C100.303 13.5451 100.654 13.6289 101.001 13.729C101.632 13.9112 102.26 14.1032 102.864 14.3657C103.296 14.5534 103.701 14.7865 104.057 15.0997C104.569 15.5502 104.877 16.1141 104.973 16.7927C105.004 17.0096 105.024 17.228 105.017 17.4473Z" fill="#878787"/>
</svg>
