<svg width="79" height="26" viewBox="0 0 79 26" fill="none" xmlns="http://www.w3.org/2000/svg">
<path d="M27.1475 0.846746C26.587 0.381751 25.9217 0.152178 25.2201 0C17.9273 0 10.6345 0 3.34165 0C3.32568 0.0147083 3.30782 0.0281762 3.28797 0.0285305C2.21318 0.0482007 1.43501 0.607293 0.776278 1.37217C0.302843 1.92178 0.0323862 2.55672 0 3.28208C0 9.37149 0 15.4609 0 21.5503C0.0168697 21.5979 0.0409564 21.6442 0.049707 21.6933C0.37817 23.5418 1.94363 24.8417 3.84494 24.8418C10.8185 24.8421 17.7923 24.8427 24.7659 24.8414C26.8375 24.841 28.5603 23.1525 28.561 21.1201C28.563 15.3229 28.5659 9.52571 28.5581 3.72851C28.5565 2.55716 28.0568 1.60112 27.1475 0.846746ZM16.1472 14.7685C16.1162 17.5846 14.3356 19.6463 11.4915 20.184C10.8511 20.305 10.205 20.367 9.55169 20.3654C7.88087 20.3615 6.21013 20.3644 4.53931 20.364C3.84341 20.3638 3.65802 20.1867 3.65757 19.5066C3.65586 17.1535 3.65694 14.8004 3.65694 12.4472C3.65694 10.0941 3.65676 7.74095 3.65721 5.3878C3.6573 5.22304 3.65306 5.05855 3.70376 4.89707C3.77259 4.67764 3.91477 4.54655 4.14761 4.51474C4.20994 4.50619 4.27282 4.49627 4.33543 4.4964C6.3422 4.50123 8.35033 4.46446 10.3552 4.52683C11.8897 4.57455 13.3141 5.03152 14.4646 6.08995C15.637 7.16857 16.1171 8.55243 16.1444 10.0933C16.1721 11.6513 16.1644 13.2102 16.1472 14.7685ZM23.9567 20.3654H18.2529V19.3313H20.5544C20.5544 19.1661 20.5526 19.2272 20.5507 19.0298C20.5377 17.7091 20.5445 16.3882 20.5445 15.0674C20.5445 13.7465 20.5498 12.0486 20.5394 10.7278H21.6332C21.6379 13.1837 21.6407 16.539 21.6294 18.9948C21.6283 19.2093 21.6341 19.1378 21.6341 19.3313H23.9567V20.3654ZM24.7889 10.0028C23.5612 9.98623 22.3333 9.99571 21.1053 9.99549C19.8773 9.99527 18.6493 9.98955 17.4215 9.99996C17.165 10.0021 17.1199 9.94635 17.2085 9.70548C17.8163 8.05155 18.4154 6.39443 19.0057 4.73439C19.075 4.53968 19.1755 4.49051 19.3701 4.49175C20.5245 4.49915 21.679 4.50034 22.8334 4.49073C23.0369 4.48904 23.1262 4.55767 23.1919 4.74205C23.7824 6.40183 24.3787 8.05975 24.9839 9.71448C25.0642 9.93417 25.0741 10.0067 24.7889 10.0028Z" fill="#878787"/>
<path d="M12.7906 8.40916C12.1757 7.54283 11.2679 7.21101 10.2506 7.12511C9.11984 7.02959 7.98407 7.10894 6.85109 7.07974C6.59335 7.0731 6.51189 7.14066 6.51379 7.40324C6.52569 9.07365 6.51983 10.7441 6.51983 12.4146C6.51983 14.0954 6.51938 15.7762 6.52064 17.457C6.52082 17.6035 6.47103 17.7735 6.73589 17.7663C7.9524 17.7329 9.17108 17.8231 10.3862 17.7109C12.1801 17.5451 13.2426 16.4373 13.3145 14.6743C13.3708 13.2932 13.3343 11.9118 13.3369 10.5306C13.3384 9.78275 13.2436 9.04724 12.7906 8.40916Z" fill="#878787"/>
<path d="M56.108 8.96303C54.5192 8.52727 52.8965 8.53928 51.2898 8.64059C48.858 8.79406 47.3722 10.6591 47.4466 12.6494C47.4978 14.0217 47.3936 15.401 47.4762 16.7704C47.5424 17.8665 47.9382 18.853 48.9455 19.5242C50.7593 20.7329 52.6975 20.4399 54.7887 20.0629C54.7887 20.32 54.7877 20.5499 54.7889 20.7797C54.7962 22.2012 54.3895 22.8218 53.2009 23.202C51.978 23.5932 51.0866 23.2909 50.2841 22.2101C49.9598 21.7734 49.5519 21.653 49.0506 21.8929C48.7653 22.0295 48.4882 22.1825 48.2011 22.315C47.5483 22.6163 47.4336 23.1011 47.8073 23.6529C48.538 24.7319 49.7369 25.3287 49.7369 25.3288C50.3964 25.6307 52.9497 26.6599 55.2501 25.3554C56.2243 24.8029 56.7404 24.0706 56.8428 23.9108C57.4147 23.0193 57.6328 22.0213 57.6405 20.996C57.666 17.6338 57.6504 14.2713 57.65 10.909C57.6498 9.7489 57.2274 9.27004 56.108 8.96303ZM54.8059 17.4353C54.7523 17.4712 54.6706 17.5234 54.5671 17.5793C53.4691 18.1736 51.6081 18.1528 50.5742 17.5138C50.2017 17.2836 49.9871 16.8712 49.9906 16.439L50.0243 12.2245C50.0286 11.6886 50.3684 11.1906 50.8916 11.0383C51.9173 10.7397 53.5038 10.7773 54.8059 11.3174C54.8059 11.3174 54.8059 11.8822 54.8059 17.4353Z" fill="#878787"/>
<path d="M40.7231 17.7617L33.8485 17.7704L33.8627 5.04162C33.8629 4.78418 33.6506 4.5753 33.3884 4.5753H31.2835C31.0216 4.5753 30.8093 4.78387 30.8093 5.04114V20.113C30.8093 20.3702 31.0216 20.5788 31.2835 20.5788H40.7236C40.9856 20.5788 41.1979 20.3702 41.1979 20.113V18.2276C41.1979 17.9701 40.9852 17.7614 40.7231 17.7617Z" fill="#878787"/>
<path d="M45.0045 4.5753H42.8773C42.6238 4.5753 42.4182 4.77714 42.4182 5.02616V7.11541C42.4182 7.36438 42.6238 7.56627 42.8773 7.56627H45.0045C45.258 7.56627 45.4635 7.36438 45.4635 7.11541V5.02616C45.4635 4.77714 45.258 4.5753 45.0045 4.5753Z" fill="#878787"/>
<path d="M44.973 8.74732H42.7996C42.6027 8.74732 42.4432 8.90402 42.4432 9.09731V20.2288C42.4432 20.4221 42.6027 20.5788 42.7996 20.5788H44.973C45.1698 20.5788 45.3293 20.4221 45.3293 20.2288V9.09731C45.3293 8.90402 45.1698 8.74732 44.973 8.74732Z" fill="#878787"/>
<path d="M70.1342 11.6244C70.0809 11.2373 69.9607 10.8715 69.7806 10.538C69.3387 9.71971 68.6192 9.31275 68.2272 9.09487C66.8363 8.32166 65.4451 8.43153 64.9041 8.48137C63.9872 8.56586 63.2729 8.83238 62.8364 9.03028L62.832 4.24015C62.8319 4.03295 62.6607 3.86509 62.4498 3.86509H60.35C60.1389 3.86509 59.9678 4.03318 59.9678 4.24051V20.2069C59.9678 20.4143 60.1389 20.5824 60.35 20.5824H62.4494C62.6605 20.5824 62.8317 20.4143 62.8317 20.2069V11.5689C62.8317 11.5689 63.2186 11.2441 63.9914 11.0916C66.1846 10.6587 67.486 11.6013 67.4861 13.7767C67.4861 14.3063 67.4874 14.8359 67.4867 15.3655H67.4847V20.2168C67.4847 20.4226 67.6545 20.5895 67.8642 20.5895H69.9964C70.2075 20.5895 70.3787 20.4214 70.3787 20.2141V15.3655H70.3744C70.3623 14.1148 70.3051 12.8663 70.1342 11.6244Z" fill="#878787"/>
<path d="M76.322 11.1703H78.8356C78.9264 11.1703 79 11.098 79 11.0089V9.20903C79 9.11985 78.9264 9.0476 78.8356 9.0476H76.322V6.40307C76.322 6.31389 76.2483 6.24164 76.1576 6.24164H73.9412C73.8505 6.24164 73.7769 6.31389 73.7769 6.40307V9.0476H71.6583C71.5676 9.0476 71.494 9.11985 71.494 9.20903V11.0089C71.494 11.098 71.5676 11.1703 71.6583 11.1703H73.7769V16.8537C73.7769 17.4827 73.8417 18.0444 73.9708 18.5397C74.0999 19.035 74.3099 19.4517 74.6013 19.7898C74.8921 20.1278 75.2751 20.3873 75.7518 20.5681C76.2277 20.7482 76.8178 20.839 77.5227 20.839L78.9999 20.7516L79 18.5217C78.7671 18.5896 78.3582 18.676 77.8628 18.6017C77.5577 18.556 77.173 18.5289 76.7916 18.0986C76.2408 17.477 76.322 16.4528 76.322 16.4528V11.1703Z" fill="#878787"/>
</svg>
