<svg width="111" height="16" viewBox="0 0 111 16" fill="none" xmlns="http://www.w3.org/2000/svg">
<path d="M9.48979 11.8096C9.48979 12.2331 9.39037 12.6123 9.19204 12.9467C8.99371 13.2815 8.72706 13.5644 8.39285 13.7958C8.05814 14.0272 7.66428 14.2046 7.21077 14.3274C6.75726 14.4508 6.27546 14.5119 5.76535 14.5119H0V4.02765H6.22447C6.64382 4.02765 7.02366 4.10615 7.36398 4.26364C7.70405 4.42113 7.99313 4.62552 8.23123 4.87628C8.46933 5.12756 8.65338 5.41298 8.78391 5.73307C8.91417 6.05315 8.97943 6.37527 8.97943 6.70045C8.97943 7.21218 8.82903 7.6923 8.52873 8.14032C8.22843 8.58833 7.80015 8.92065 7.24493 9.13676C7.93628 9.31413 8.48335 9.63676 8.88587 10.1041C9.2884 10.5715 9.48979 11.1403 9.48979 11.8096ZM1.90479 5.45988V8.54603H5.40821C5.6463 8.54603 5.86426 8.50678 6.06285 8.42778C6.26118 8.34929 6.43708 8.24328 6.59003 8.11076C6.74324 7.97773 6.86229 7.81769 6.94718 7.63063C7.03232 7.44358 7.0749 7.23715 7.0749 7.01034C7.0749 6.55774 6.9273 6.18618 6.6326 5.89566C6.33766 5.60514 5.96343 5.45988 5.51018 5.45988H1.90479ZM7.53401 11.4997C7.53401 11.2831 7.49144 11.0761 7.4063 10.8794C7.32141 10.6826 7.20797 10.5104 7.06623 10.3626C6.92449 10.2147 6.75165 10.0965 6.54746 10.0083C6.34352 9.91964 6.1225 9.87529 5.8844 9.87529H1.90479V13.0797H5.76535C6.01441 13.0797 6.2469 13.0379 6.46257 12.9538C6.67773 12.8707 6.86484 12.7571 7.02366 12.6144C7.18247 12.4716 7.30713 12.3045 7.39789 12.1123C7.48864 11.9202 7.53401 11.7163 7.53401 11.4997Z" fill="#878787"/>
<path d="M11.4792 14.5119V4.02765H13.384V14.5119H11.4792Z" fill="#878787"/>
<path d="M19.6592 4.02765H21.3259L26.0876 14.5119H24.0809L22.8055 11.6617H18.1457L16.8872 14.5119H14.8633L19.6592 4.02765ZM22.4312 10.4365L20.4925 5.93235L18.4858 10.4365H22.4312Z" fill="#878787"/>
<path d="M29.4891 7.12859V14.5119H27.5843V4.02765H29.0809L35.9855 11.5884V4.04244H37.9074V14.5119H36.3256L29.4891 7.12859Z" fill="#878787"/>
<path d="M39.8629 9.19588C39.8629 8.56591 39.9932 7.93848 40.254 7.3131C40.5148 6.68822 40.8974 6.12706 41.4019 5.6296C41.9064 5.13266 42.5215 4.73153 43.2473 4.42623C43.9725 4.12093 44.7949 3.96853 45.7132 3.96853C46.8129 3.96853 47.7541 4.18005 48.5362 4.60309C49.3186 5.02664 49.9079 5.57812 50.3051 6.25754L48.8085 7.12859C48.6384 6.8136 48.4342 6.54806 48.1961 6.33093C47.958 6.11482 47.6972 5.94255 47.4138 5.81411C47.1303 5.68618 46.8356 5.59545 46.5294 5.54092C46.2235 5.48689 45.9283 5.45988 45.6451 5.45988C45.0101 5.45988 44.4546 5.57048 43.9784 5.79219C43.5022 6.01391 43.1028 6.30647 42.7795 6.67089C42.4565 7.03532 42.2126 7.44358 42.0484 7.89618C41.8837 8.34929 41.8016 8.8024 41.8016 9.255C41.8016 9.76673 41.898 10.2545 42.0907 10.7168C42.2834 11.1796 42.5526 11.5884 42.8986 11.9426C43.2442 12.2968 43.6554 12.5802 44.1316 12.7917C44.6078 13.0032 45.1291 13.1093 45.6961 13.1093C45.9908 13.1093 46.2941 13.0771 46.6062 13.0129C46.9177 12.9492 47.2182 12.8458 47.5073 12.703C47.7964 12.5603 48.0628 12.3809 48.3068 12.1638C48.5505 11.9477 48.7516 11.6867 48.9104 11.3814L50.492 12.1638C50.2992 12.5578 50.027 12.9049 49.6757 13.2051C49.3242 13.5053 48.9275 13.7586 48.4852 13.9655C48.0432 14.1725 47.5754 14.33 47.0824 14.438C46.5891 14.5461 46.1045 14.6006 45.6283 14.6006C44.7779 14.6006 44.0011 14.4431 43.2983 14.1281C42.5952 13.8131 41.9887 13.4023 41.4786 12.8952C40.9683 12.3881 40.5714 11.8121 40.2881 11.1674C40.0047 10.5226 39.8629 9.86561 39.8629 9.19588Z" fill="#878787"/>
<path d="M57.154 14.5858C56.2913 14.5858 55.5061 14.436 54.7985 14.1353C54.0895 13.8351 53.48 13.4365 52.9699 12.939C52.4598 12.4421 52.0657 11.8738 51.7878 11.2336C51.5099 10.594 51.3713 9.93952 51.3713 9.26979C51.3713 8.571 51.5184 7.90128 51.8133 7.26162C52.108 6.62145 52.5133 6.0557 53.0293 5.56334C53.5453 5.07098 54.1573 4.67954 54.8658 4.38902C55.5744 4.09901 56.3484 3.95375 57.1876 3.95375C58.0492 3.95375 58.8344 4.10869 59.5431 4.41858C60.2518 4.72898 60.8585 5.13469 61.3622 5.63725C61.867 6.13929 62.2585 6.70759 62.5359 7.34266C62.8143 7.97773 62.953 8.62503 62.953 9.28457C62.953 9.98386 62.8082 10.6531 62.5196 11.2927C62.23 11.9329 61.8242 12.4961 61.3031 12.9834C60.781 13.4706 60.1661 13.86 59.4574 14.15C58.7488 14.4406 57.9809 14.5858 57.154 14.5858ZM53.31 9.26979C53.31 9.76214 53.4007 10.2397 53.5822 10.702C53.7635 11.1648 54.0215 11.5736 54.3559 11.9278C54.6904 12.282 55.0962 12.5654 55.5714 12.7769C56.0476 12.9885 56.5809 13.0945 57.1703 13.0945C57.7831 13.0945 58.3235 12.9834 58.7946 12.7622C59.2647 12.5404 59.6644 12.2479 59.9938 11.8835C60.3221 11.5195 60.572 11.1108 60.7423 10.6577C60.9115 10.2051 60.9972 9.74227 60.9972 9.26979C60.9972 8.76774 60.9064 8.28762 60.7249 7.82992C60.5434 7.37222 60.2854 6.96855 59.951 6.6189C59.6165 6.26977 59.2137 5.98944 58.7437 5.77741C58.2726 5.56589 57.7484 5.45988 57.1703 5.45988C56.5585 5.45988 56.0139 5.57048 55.5377 5.79219C55.0615 6.01391 54.6588 6.30188 54.3304 6.65611C54.0013 7.01034 53.7492 7.41656 53.5736 7.87426C53.3977 8.33196 53.31 8.79731 53.31 9.26979Z" fill="#878787"/>
<path d="M66.9539 7.12859V14.5119H65.0496V4.02765H66.546L73.4509 11.5884V4.04244H75.3725V14.5119H73.791L66.9539 7.12859Z" fill="#878787"/>
<path d="M86.376 13.0501V14.5119H78.0941V4.02765H86.2231V5.48944H79.9984V8.47213H85.3895V9.84573H79.9984V13.0501H86.376Z" fill="#878787"/>
<path d="M88.3492 14.5119V4.02765H93.6041C94.1482 4.02765 94.6498 4.12602 95.1092 4.32276C95.5681 4.52001 95.9622 4.77842 96.291 5.098C96.6199 5.41808 96.8779 5.78251 97.065 6.19077C97.2521 6.59954 97.3454 7.01544 97.3454 7.43848C97.3454 7.79322 97.2883 8.13267 97.1751 8.45735C97.0619 8.78253 96.9034 9.08273 96.6989 9.35847C96.495 9.63421 96.2457 9.87275 95.951 10.0746C95.6558 10.2764 95.333 10.4268 94.9812 10.5251L97.8216 14.5119H95.6619L93.0428 10.8646H90.2534V14.5119H88.3492ZM90.2534 9.40281H93.5868C93.8591 9.40281 94.1058 9.35083 94.3266 9.24736C94.5479 9.1444 94.7375 9.00169 94.8966 8.81922C95.0552 8.63726 95.1796 8.42778 95.2708 8.1918C95.3611 7.9553 95.4065 7.70454 95.4065 7.43848C95.4065 7.17293 95.3529 6.92166 95.2454 6.68567C95.1373 6.44918 94.9955 6.24275 94.8201 6.06538C94.6442 5.88852 94.4398 5.74785 94.2078 5.64438C93.9753 5.54092 93.7342 5.48944 93.4848 5.48944H90.2534V9.40281Z" fill="#878787"/>
<path d="M104.607 14.5858C103.745 14.5858 102.96 14.436 102.252 14.1353C101.543 13.8351 100.934 13.4365 100.423 12.939C99.913 12.4421 99.5189 11.8738 99.2415 11.2336C98.9637 10.594 98.8245 9.93952 98.8245 9.26979C98.8245 8.571 98.9718 7.90128 99.267 7.26162C99.5617 6.62145 99.967 6.0557 100.483 5.56334C100.998 5.07098 101.611 4.67954 102.319 4.38902C103.028 4.09901 103.802 3.95375 104.641 3.95375C105.502 3.95375 106.288 4.10869 106.996 4.41858C107.705 4.72898 108.312 5.13469 108.816 5.63725C109.321 6.13929 109.712 6.70759 109.99 7.34266C110.267 7.97773 110.406 8.62503 110.406 9.28457C110.406 9.98386 110.262 10.6531 109.973 11.2927C109.684 11.9329 109.278 12.4961 108.757 12.9834C108.235 13.4706 107.62 13.86 106.911 14.15C106.202 14.4406 105.435 14.5858 104.607 14.5858ZM100.763 9.26979C100.763 9.76214 100.854 10.2397 101.036 10.702C101.217 11.1648 101.475 11.5736 101.81 11.9278C102.144 12.282 102.549 12.5654 103.025 12.7769C103.501 12.9885 104.034 13.0945 104.624 13.0945C105.236 13.0945 105.777 12.9834 106.248 12.7622C106.718 12.5404 107.118 12.2479 107.447 11.8835C107.776 11.5195 108.025 11.1108 108.195 10.6577C108.365 10.2051 108.45 9.74227 108.45 9.26979C108.45 8.76774 108.36 8.28762 108.178 7.82992C107.997 7.37222 107.739 6.96855 107.405 6.6189C107.07 6.26977 106.667 5.98944 106.197 5.77741C105.726 5.56589 105.202 5.45988 104.624 5.45988C104.012 5.45988 103.468 5.57048 102.991 5.79219C102.515 6.01391 102.112 6.30188 101.784 6.65611C101.455 7.01034 101.203 7.41656 101.027 7.87426C100.851 8.33196 100.763 8.79731 100.763 9.26979Z" fill="#878787"/>
<path d="M61.3893 3.04746H60.7272L63.0733 5.39282V4.73094L61.3893 3.04746Z" fill="#878787"/>
<path d="M63.3074 4.96497L63.0733 4.73094V5.39282L63.3074 5.62685L63.5415 5.39281V4.73094L63.3074 4.96497Z" fill="#878787"/>
<path d="M63.3074 5.62685L63.0733 5.39282V14.8661H51.2509V3.04746H60.7272L60.4931 2.81342L60.7272 2.57939H50.7827V15.3342H63.5415V5.39281L63.3074 5.62685Z" fill="#878787"/>
<path d="M63.3074 0.661875L65.4596 2.81342L63.5415 4.73094V5.39281L66.1217 2.81342L63.3074 0L60.7272 2.57939H61.3893L63.3074 0.661875Z" fill="#878787"/>
<path d="M60.7272 3.04746H61.3893L61.1552 2.81342L61.3893 2.57939H60.7272L60.4931 2.81342L60.7272 3.04746Z" fill="#878787"/>
</svg>
