<svg width="79" height="27" viewBox="0 0 79 27" fill="none" xmlns="http://www.w3.org/2000/svg">
<path d="M0.486628 24.9025H2.62875C2.76697 24.9025 2.87755 24.8554 2.96049 24.7605C3.04268 24.6656 3.08377 24.5169 3.08377 24.3113C3.08377 24.1065 3.04492 23.9548 2.96646 23.8562C2.88278 23.7627 2.76847 23.7156 2.62426 23.7156H0.486628V24.9025ZM0.00321288 26.5177V23.2754H2.64668C2.93508 23.2754 3.16073 23.3614 3.32436 23.5325C3.48649 23.7022 3.56718 23.9623 3.56718 24.3106C3.56718 24.6574 3.485 24.9137 3.31913 25.0812C3.15326 25.2523 2.92313 25.3375 2.62875 25.3375H0.486628V26.5177H0.00321288Z" fill="#878787"/>
<path d="M6.22851 24.9069H8.46029C8.63662 24.9069 8.76588 24.8763 8.84881 24.8173C8.9706 24.7246 9.03187 24.5564 9.03187 24.3113C9.03187 24.0646 8.97284 23.8979 8.85404 23.8105C8.76737 23.747 8.63662 23.7156 8.46029 23.7156H6.22851V24.9069ZM5.74509 23.2761H8.6553C8.92951 23.2761 9.14095 23.3688 9.28814 23.5556C9.43683 23.7455 9.5108 23.9966 9.5108 24.3098C9.5108 24.5781 9.46896 24.7791 9.38303 24.9122C9.32326 25.0056 9.22688 25.0811 9.09463 25.1386C9.21193 25.1865 9.30383 25.2478 9.36958 25.324C9.46373 25.4316 9.5108 25.5639 9.5108 25.7216V26.5176H9.03187V25.7216C9.03187 25.614 8.98181 25.5228 8.88169 25.4511C8.77708 25.3808 8.65156 25.3472 8.50661 25.3472H6.22851V26.5176H5.74509V23.2761Z" fill="#878787"/>
<path d="M13.8071 26.1287C14.552 26.1287 14.9906 26.0741 15.1228 25.9635C15.2558 25.8529 15.3223 25.4993 15.3223 24.9029C15.3223 24.3027 15.2573 23.947 15.1281 23.8356C14.9951 23.725 14.555 23.6697 13.8071 23.6697C13.0592 23.6697 12.6198 23.725 12.4906 23.8356C12.3583 23.947 12.2918 24.3027 12.2918 24.9029C12.2918 25.4963 12.3583 25.8484 12.4906 25.9575C12.6228 26.0718 13.0621 26.1287 13.8071 26.1287ZM13.8071 26.5636C13.1339 26.5636 12.6639 26.5195 12.3957 26.4321C12.1274 26.3469 11.9563 26.1832 11.8816 25.9396C11.8331 25.7729 11.8084 25.4276 11.8084 24.9029C11.8084 24.3685 11.8308 24.0225 11.8779 23.864C11.9504 23.6166 12.123 23.4492 12.3942 23.361C12.6669 23.2736 13.1376 23.2295 13.8071 23.2295C14.4795 23.2295 14.9502 23.2721 15.2185 23.3565C15.483 23.444 15.6533 23.6121 15.7288 23.8588C15.7796 24.0277 15.8057 24.3745 15.8057 24.9029C15.8057 25.4328 15.7818 25.7774 15.734 25.9343C15.6615 26.1817 15.4912 26.3469 15.2222 26.4321C14.954 26.5195 14.4818 26.5636 13.8071 26.5636Z" fill="#878787"/>
<path d="M21.1953 23.2758V26.5181H24.299V26.0831H21.6787V25.095H24.2094V24.6548H21.6787V23.716H24.299V23.2758H21.1953Z" fill="#878787"/>
<path d="M30.1543 23.2711V26.1142L27.3719 23.2711H26.6673V26.5171H27.1507V23.6971L29.907 26.5171H30.6385V23.2711H30.1543Z" fill="#878787"/>
<path d="M33.4035 24.9036C33.4035 25.5008 33.4685 25.8565 33.5977 25.9701C33.727 26.0837 34.1387 26.1405 34.8328 26.1405C35.5127 26.1405 35.9236 26.1009 36.0656 26.0224C36.2046 25.944 36.2741 25.7033 36.2741 25.3027H34.7102V24.8632H36.7575V25.3027C36.7575 25.8603 36.6432 26.2115 36.4145 26.3558C36.1881 26.5045 35.6606 26.5793 34.8328 26.5793C33.9937 26.5793 33.4647 26.4836 33.2458 26.29C33.0284 26.0979 32.92 25.6338 32.92 24.8983C32.92 24.1599 33.0284 23.6973 33.2458 23.5097C33.4602 23.3228 33.9892 23.2294 34.8328 23.2294C35.6644 23.2294 36.1926 23.2922 36.4183 23.4162C36.6446 23.5403 36.7575 23.8452 36.7575 24.3333H36.2741C36.2741 24.0201 36.1986 23.8303 36.0469 23.7645C35.8945 23.7002 35.4895 23.6689 34.8328 23.6689C34.1327 23.6689 33.7188 23.7249 33.5932 23.8363C33.467 23.9469 33.4035 24.3027 33.4035 24.9036Z" fill="#878787"/>
<path d="M39.6607 23.2757H39.1781V26.518H39.6607V23.2757Z" fill="#878787"/>
<path d="M45.4357 23.2711V26.1142L42.6533 23.2711H41.9479V26.5171H42.4314V23.6971L45.1884 26.5171H45.9191V23.2711H45.4357Z" fill="#878787"/>
<path d="M48.2654 23.2758V26.5181H51.3698V26.0831H48.7488V25.095H51.2794V24.6548H48.7488V23.716H51.3698V23.2758H48.2654Z" fill="#878787"/>
<path d="M53.6651 23.2758V26.5181H56.7688V26.0831H54.1485V25.095H56.6784V24.6548H54.1485V23.716H56.7688V23.2758H53.6651Z" fill="#878787"/>
<path d="M59.597 24.9069H61.8288C62.0051 24.9069 62.1344 24.8763 62.2173 24.8173C62.3391 24.7246 62.4004 24.5564 62.4004 24.3113C62.4004 24.0646 62.3413 23.8979 62.2225 23.8105C62.1359 23.747 62.0051 23.7156 61.8288 23.7156H59.597V24.9069ZM59.1136 23.2761H62.023C62.2973 23.2761 62.5087 23.3688 62.6566 23.5556C62.8053 23.7455 62.8793 23.9966 62.8793 24.3098C62.8793 24.5781 62.8367 24.7791 62.7515 24.9122C62.6918 25.0056 62.5946 25.0811 62.4624 25.1386C62.5804 25.1865 62.6723 25.2478 62.7381 25.324C62.8322 25.4316 62.8793 25.5639 62.8793 25.7216V26.5176H62.4004V25.7216C62.4004 25.614 62.3496 25.5228 62.2502 25.4511C62.1456 25.3808 62.0193 25.3472 61.8751 25.3472H59.597V26.5176H59.1136V23.2761Z" fill="#878787"/>
<path d="M65.7883 23.2757H65.3049V26.518H65.7883V23.2757Z" fill="#878787"/>
<path d="M71.5623 23.2711V26.1142L68.7799 23.2711H68.0745V26.5171H68.558V23.6971L71.3143 26.5171H72.0457V23.2711H71.5623Z" fill="#878787"/>
<path d="M74.8105 24.9036C74.8105 25.5008 74.8755 25.8565 75.0047 25.9701C75.134 26.0837 75.5457 26.1405 76.2398 26.1405C76.9204 26.1405 77.3306 26.1009 77.4726 26.0224C77.6116 25.944 77.6811 25.7033 77.6811 25.3027H76.1172V24.8632H78.1645V25.3027C78.1645 25.8603 78.0502 26.2115 77.8215 26.3558C77.5951 26.5045 77.0676 26.5793 76.2398 26.5793C75.4015 26.5793 74.8725 26.4836 74.6528 26.29C74.4354 26.0979 74.327 25.6338 74.327 24.8983C74.327 24.1599 74.4354 23.6973 74.6528 23.5097C74.8672 23.3228 75.3962 23.2294 76.2398 23.2294C77.0714 23.2294 77.5996 23.2922 77.826 23.4162C78.0517 23.5403 78.1645 23.8452 78.1645 24.3333H77.6811C77.6811 24.0201 77.6056 23.8303 77.4539 23.7645C77.3015 23.7002 76.8965 23.6689 76.2398 23.6689C75.5397 23.6689 75.1258 23.7249 75.0002 23.8363C74.874 23.9469 74.8105 24.3027 74.8105 24.9036Z" fill="#878787"/>
<path d="M3.99583 19.2307C3.34281 19.2307 2.76675 19.1006 2.26391 18.8398C1.76032 18.5782 1.34116 18.2381 1.00643 17.8188C0.670953 17.4003 0.419159 16.9301 0.251794 16.4077C0.0844294 15.886 0 15.3643 0 14.8426C0 14.078 0.130007 13.4682 0.391514 13.0115C0.651527 12.5548 0.939932 12.1781 1.25748 11.8799C1.42484 11.7304 1.62956 11.5907 1.87239 11.4606C2.11373 11.3298 2.34684 11.2274 2.57099 11.1534C3.92933 10.6878 5.36538 10.2117 6.87391 9.72737C8.38243 9.24305 9.90515 8.76247 11.4428 8.28786C12.979 7.81251 14.5062 7.33791 16.0252 6.86255C17.5427 6.3872 18.9817 5.90811 20.3423 5.4223C20.3789 5.38567 20.4163 5.36699 20.4536 5.36699C20.4902 5.36699 20.5463 5.3483 20.6217 5.31093L20.5933 5.33933C20.686 5.30196 20.8175 5.22199 20.9841 5.10166C21.1522 4.97983 21.2359 4.79896 21.2359 4.5568C21.2359 4.51943 21.2314 4.44992 21.2217 4.34752C21.2127 4.24438 21.1799 4.13675 21.1246 4.02539C21.0678 3.91328 20.9893 3.81537 20.887 3.73091C20.7846 3.64795 20.6397 3.60609 20.4536 3.60609H0.86671C0.481174 3.60609 0.167365 3.29293 0.167365 2.90727V1.00661C0.167365 0.620946 0.481174 0.30778 0.86671 0.30778H20.6494C21.5064 0.30778 22.1952 0.513319 22.7168 0.922899C23.2383 1.33323 23.6291 1.78915 23.8906 2.29215C24.1513 2.79516 24.3232 3.27499 24.4076 3.73091C24.4913 4.18833 24.5331 4.46337 24.5331 4.5568C24.5331 5.26459 24.4397 5.84159 24.2537 6.28929C24.0669 6.73624 23.8577 7.09051 23.6246 7.35211C23.3922 7.61295 23.1598 7.80279 22.9267 7.92462C22.6936 8.04645 22.5218 8.12493 22.4097 8.1623L3.82772 14.2559L3.88451 14.2275C3.67903 14.3015 3.5438 14.4047 3.47879 14.5347C3.41379 14.6655 3.38092 14.8053 3.38092 14.954C3.38092 15.1962 3.45563 15.4107 3.60432 15.5968C3.75375 15.7829 3.93905 15.895 4.1632 15.9324H23.5267C23.9742 15.9324 24.3381 16.2956 24.3381 16.7448V18.419C24.3381 18.8667 23.9742 19.2307 23.5267 19.2307H3.99583Z" fill="#878787"/>
<path d="M31.8692 5.08723C31.4217 5.51625 31.0772 6.01477 30.8359 6.5828C30.5931 7.15158 30.472 7.78015 30.472 8.46926V8.52531H49.175C49.6166 8.52531 49.9753 8.88407 49.9753 9.32654V10.9948C49.9753 11.4372 49.6166 11.796 49.175 11.796H30.472V18.5809C30.472 18.9397 30.1814 19.2304 29.8235 19.2304H27.8525C27.4938 19.2304 27.2032 18.9397 27.2032 18.5809V8.46926C27.2032 7.33394 27.4131 6.27487 27.8316 5.29726C28.2507 4.31965 28.823 3.46685 29.5508 2.73962C30.2763 2.0124 31.1288 1.4354 32.1068 1.00639C33.0849 0.578119 34.1324 0.363614 35.2501 0.363614H50.3869C50.8083 0.363614 51.149 0.70518 51.149 1.12597V2.89957C51.149 3.32111 50.8083 3.66267 50.3869 3.66267H35.2501C34.5986 3.66267 33.9882 3.78749 33.4196 4.03937C32.851 4.2905 32.3444 4.63954 31.8969 5.08723H31.8692Z" fill="#878787"/>
<path d="M75.2225 14.339C75.3525 14.0782 75.4183 13.771 75.4183 13.4167C75.4183 13.0625 75.3436 12.7321 75.1949 12.4242C75.0454 12.1162 74.8452 11.8472 74.5941 11.614C74.3416 11.3815 74.0442 11.1954 73.6998 11.0549C73.3554 10.9152 72.996 10.8456 72.6246 10.8456H56.9768V15.9325H72.6246C73.1641 15.9325 73.6819 15.7883 74.175 15.499C74.6681 15.2105 75.0178 14.8241 75.2225 14.339ZM56.9768 7.68635H72.5962C72.9317 7.68635 73.2672 7.64449 73.6019 7.56078C73.9374 7.47782 74.24 7.35151 74.5105 7.18334C74.7802 7.01592 74.9999 6.80216 75.1665 6.54057C75.3346 6.27973 75.4183 5.98151 75.4183 5.64592C75.4183 5.31034 75.3346 5.0039 75.1665 4.72362C74.9999 4.44484 74.7757 4.21165 74.4963 4.02479C74.2168 3.83869 73.9 3.69444 73.5459 3.5913C73.1917 3.48965 72.8383 3.43808 72.4842 3.43808H56.9768V7.68635ZM78.7155 5.4785C78.7155 6.2431 78.5526 6.94567 78.2269 7.58919C77.8996 8.23121 77.4483 8.7955 76.8708 9.27982C77.4296 9.8202 77.8772 10.4435 78.2119 11.1513C78.5339 11.83 78.708 12.5811 78.7148 13.3323C78.723 14.1739 78.5564 14.9564 78.2127 15.6806C77.8779 16.3892 77.4304 17.0088 76.8708 17.5402C76.3126 18.0708 75.6596 18.4857 74.9154 18.7831C74.1698 19.0821 73.3875 19.2308 72.5678 19.2308H53.6803V1.24369C53.6803 0.556818 54.2362 0 54.9228 0H72.4842C73.0617 0 73.634 0.0702549 74.2026 0.21002C74.7712 0.349786 75.3069 0.559062 75.8098 0.839341C76.3126 1.11812 76.7639 1.46343 77.1644 1.87375C77.5649 2.28259 77.8959 2.74897 78.1559 3.27066C78.5287 4.01583 78.7155 4.75202 78.7155 5.4785Z" fill="#878787"/>
</svg>
