<svg width="40" height="37" viewBox="0 0 40 37" fill="none" xmlns="http://www.w3.org/2000/svg">
<path d="M0 25.7346C0.0222056 25.7346 0.0444113 25.7242 0.0777198 25.7242C0.0777198 26.4523 0.0777198 27.1805 0.0777198 27.9086L0.0444113 27.8982H0.0111028C0 27.1805 0 26.4523 0 25.7346Z" fill="black"/>
<path d="M25.0147 20.388C27.313 20.388 29.6224 20.4296 31.8984 20.0551C35.0849 19.535 37.4943 17.9851 38.8266 15.1766C40.3588 11.9727 40.381 8.70649 38.9487 5.45066C37.8829 3.02699 35.9843 1.42508 33.2974 0.655328C31.6653 0.187236 29.9776 0.0624121 28.3011 0.0416081C24.9037 0 21.5173 0.020804 18.1309 0C17.7978 0 17.7201 0.0728142 17.7201 0.384875C17.7312 4.52488 17.7312 8.65448 17.7201 12.7945C17.7201 12.8673 17.7867 12.9713 17.6424 13.0233C17.6091 12.9921 17.5758 12.9505 17.5314 12.9193C13.5788 8.69609 9.62615 4.47287 5.67355 0.249649C5.51811 0.0728142 5.36267 0 5.1073 0C3.40857 0.010402 1.69873 0.010402 0 0.010402C0 0.0312061 0 0.0624121 0 0.0832162C0.111028 0.280855 0.255365 0.457689 0.410805 0.624121C1.79866 2.10121 3.17541 3.5783 4.57437 5.04498C6.07325 6.62609 7.56103 8.2176 9.05991 9.79871C10.9918 11.8479 12.9237 13.9075 14.8556 15.9671C14.9999 16.1127 15.1554 16.2584 15.2553 16.4872C13.8119 16.5392 12.413 16.4664 11.0251 16.56C10.0814 16.6224 9.14873 16.6744 8.2161 16.8097C6.31751 17.0905 4.58547 17.7459 3.18651 18.9941C1.11028 20.8457 0.111028 23.1549 0.0444113 25.8386C0.066617 26.5252 0 27.2117 0.0777198 27.8878C0.111028 28.4391 0.199851 28.98 0.333085 29.5105C1.27683 33.3177 3.65283 35.8142 7.8386 36.5943C9.8149 36.9584 11.8245 36.9688 13.8341 36.9896C16.5321 37.0104 19.2301 36.9896 21.9281 37C22.239 37 22.3278 36.9272 22.3278 36.6359C22.3167 33.5257 22.3167 30.4051 22.3278 27.2949C22.3278 27.0765 22.2723 26.9204 22.1168 26.7644C20.729 25.2977 19.3633 23.831 17.9755 22.3644C17.9089 22.2915 17.8756 22.1875 17.7201 22.1875C17.7201 22.2603 17.7201 22.3331 17.7201 22.406C17.7201 25.8074 17.7201 29.2089 17.7312 32.6103C17.7312 32.8912 17.6646 32.9744 17.3648 32.964C16.1768 32.9432 14.9999 32.964 13.8119 32.9328C12.2464 32.8912 10.692 32.7352 9.15984 32.3399C6.95037 31.7782 5.67355 30.4259 5.27385 28.3455C5.06289 27.2429 5.04069 26.1403 5.24054 25.0377C5.58472 23.1445 6.6728 21.8651 8.66021 21.3033C9.71498 21.0017 10.7809 20.8457 11.8689 20.752C14.2005 20.5544 16.5432 20.6272 18.8859 20.6064C19.2079 20.6064 19.4189 20.7 19.6298 20.9289C24.5706 26.1923 29.5224 31.4557 34.4632 36.7191C34.6075 36.8752 34.7519 36.9272 34.9739 36.9272C36.5172 36.9168 38.0605 36.9272 39.6038 36.9168C39.7148 36.9168 39.837 36.9688 39.9591 36.8648C34.8296 31.3933 29.7112 25.9218 24.5373 20.4088C24.7482 20.388 24.8814 20.388 25.0147 20.388ZM22.3167 16.0087C22.3389 14.0635 22.3278 12.1288 22.3278 10.1836C22.3278 8.2384 22.3278 6.30363 22.3278 4.35845C22.3278 4.18161 22.2834 4.02558 22.5943 4.03598C24.8259 4.04639 27.0576 4.00478 29.2671 4.34805C29.9999 4.46247 30.7215 4.6289 31.421 4.85775C33.0531 5.39865 34.0746 6.47006 34.5409 8.00956C34.9628 9.41383 34.9961 10.8389 34.6852 12.264C34.2522 14.2508 32.8977 15.3846 30.8326 15.8527C29.1227 16.248 27.3685 16.3624 25.6142 16.3936C24.6594 16.404 23.7045 16.3832 22.7386 16.404C22.4166 16.3936 22.3167 16.3312 22.3167 16.0087Z" fill="#000000"/>
</svg>
