<svg width="143" height="33" viewBox="0 0 143 33" fill="none" xmlns="http://www.w3.org/2000/svg">
<path d="M0 23.1097C0.019699 23.1054 0.0396381 23.1034 0.0598171 23.1037C0.0604537 23.7406 0.0610903 24.3775 0.0617269 25.0144L0.031133 25.0084L0 25.0102C0 24.3767 0 23.7432 0 23.1097Z" fill="white"/>
<path d="M117.299 9.33122C117.299 6.51378 117.302 3.69633 117.294 0.878913C117.293 0.630059 117.344 0.548731 117.614 0.549186C122.873 0.558012 128.131 0.557377 133.389 0.550479C133.629 0.550165 133.71 0.596413 133.704 0.852245C133.686 1.69272 133.684 2.53412 133.704 3.37453C133.711 3.65432 133.654 3.73947 133.351 3.73848C129.633 3.72629 125.914 3.73051 122.196 3.73045C121.704 3.73044 121.704 3.73033 121.704 4.20255C121.704 5.43655 121.711 6.67062 121.698 7.90447C121.695 8.15167 121.762 8.21157 122.009 8.21096C125.551 8.20222 129.094 8.20803 132.636 8.19861C132.902 8.1979 132.989 8.25069 132.982 8.53079C132.962 9.36024 132.964 10.1908 132.982 11.0203C132.988 11.2853 132.931 11.3623 132.647 11.3614C129.116 11.3499 125.585 11.3578 122.054 11.3465C121.762 11.3456 121.694 11.4132 121.696 11.7038C121.711 13.7458 121.701 15.7879 121.709 17.83C121.71 18.0696 121.677 18.168 121.393 18.1638C120.129 18.1451 118.863 18.1477 117.598 18.1624C117.341 18.1653 117.293 18.0871 117.294 17.849C117.302 15.0098 117.299 12.1705 117.299 9.33122Z" fill="white"/>
<path d="M138.558 9.34493C138.558 6.52735 138.561 3.70976 138.552 0.892227C138.551 0.624396 138.615 0.545612 138.893 0.549037C140.169 0.564756 141.445 0.560888 142.721 0.551204C142.931 0.549618 143 0.590254 142.999 0.815369C142.992 6.50511 142.992 12.1949 143 17.8846C143 18.1311 142.915 18.1619 142.7 18.1603C141.423 18.1508 140.147 18.1466 138.871 18.163C138.596 18.1665 138.552 18.0766 138.552 17.8304C138.561 15.0019 138.558 12.1734 138.558 9.34493Z" fill="white"/>
<path d="M59.0375 29.3092C59.0375 29.1232 59.0375 29.0195 59.0375 28.9157C59.0374 26.7207 59.0425 24.5256 59.0308 22.3307C59.0294 22.058 59.1011 21.9805 59.3743 21.9938C59.8572 22.0173 60.3424 22.0098 60.826 21.9957C61.0209 21.99 61.0639 22.0565 61.0637 22.2376C61.059 25.6994 61.059 29.1612 61.0635 32.623C61.0637 32.7896 61.0271 32.855 60.8466 32.85C60.4179 32.8381 59.9884 32.8383 59.5597 32.8506C59.4018 32.8551 59.3236 32.7748 59.2378 32.6701C57.3511 30.3662 55.4627 28.0636 53.5746 25.7609C53.5277 25.7038 53.4794 25.6479 53.4214 25.5791C53.3362 25.6799 53.3819 25.7804 53.3818 25.8685C53.3785 28.0963 53.3743 30.3241 53.386 32.5518C53.3873 32.8087 53.31 32.861 53.0707 32.8517C52.5874 32.8329 52.1026 32.8379 51.6189 32.8501C51.4286 32.8549 51.3544 32.8225 51.3549 32.6057C51.3626 29.1548 51.3618 25.7039 51.356 22.253C51.3557 22.0576 51.397 21.9602 51.6084 22.0002C51.6191 22.0022 51.6304 22.0004 51.6414 22.0005C52.1028 22.0048 52.6282 21.8741 53.0077 22.0513C53.3864 22.2282 53.6235 22.7098 53.9147 23.0643C55.6031 25.1199 57.2892 27.1775 59.0375 29.3092Z" fill="white"/>
<path d="M80.1347 27.4054C80.1347 25.7124 80.1388 24.0193 80.1299 22.3263C80.1286 22.0881 80.1608 21.9913 80.4434 21.9929C82.897 22.0063 85.3508 22.0043 87.8045 21.9945C88.0489 21.9935 88.1327 22.0464 88.1172 22.2984C88.0944 22.6684 88.095 23.0418 88.1172 23.4119C88.1318 23.6558 88.0365 23.6944 87.8174 23.6934C86.057 23.6852 84.2964 23.6962 82.536 23.6812C82.2441 23.6787 82.1659 23.7467 82.1766 24.0398C82.2019 24.7379 82.199 25.438 82.1778 26.1365C82.1693 26.4154 82.2245 26.5048 82.5303 26.5011C84.0595 26.4824 85.5891 26.4989 87.1185 26.4861C87.3763 26.4839 87.4643 26.5442 87.4472 26.8072C87.424 27.1661 87.4273 27.5285 87.4466 27.8879C87.4592 28.1211 87.3823 28.1781 87.1518 28.1765C85.6114 28.166 84.0708 28.1814 82.5306 28.162C82.222 28.1581 82.1713 28.2516 82.1781 28.5278C82.1972 29.3029 82.1943 30.0789 82.1787 30.8542C82.1741 31.0883 82.2446 31.1434 82.4729 31.1423C84.3214 31.1331 86.17 31.1414 88.0185 31.1315C88.255 31.1302 88.3532 31.1695 88.3355 31.4304C88.3104 31.8001 88.3121 32.1738 88.335 32.5438C88.3501 32.7891 88.2807 32.8545 88.03 32.8525C86.5007 32.84 84.9712 32.8461 83.4417 32.8461C82.4404 32.8461 81.439 32.8377 80.4379 32.8522C80.1949 32.8557 80.1262 32.8012 80.128 32.5501C80.1407 30.8353 80.1347 29.1204 80.1347 27.4054Z" fill="white"/>
<path d="M70.6094 22.0004C72.0506 22.0003 73.4919 22.0064 74.933 21.9944C75.1785 21.9924 75.2614 22.0497 75.2453 22.301C75.2224 22.6599 75.2246 23.0222 75.2445 23.3815C75.2581 23.6286 75.2031 23.7201 74.926 23.7146C73.9473 23.6952 72.9677 23.7172 71.9889 23.7003C71.703 23.6954 71.6029 23.7472 71.6046 24.0638C71.6193 26.8814 71.6089 29.6991 71.62 32.5168C71.6211 32.7937 71.5443 32.866 71.2745 32.8524C70.8246 32.8296 70.3719 32.8299 69.9219 32.8523C69.6574 32.8655 69.572 32.805 69.5732 32.5224C69.5849 29.7047 69.5749 26.887 69.5881 24.0694C69.5896 23.7633 69.5063 23.6935 69.2087 23.6994C68.2189 23.7191 67.2284 23.7004 66.2384 23.7125C66.0168 23.7152 65.9551 23.651 65.9654 23.4358C65.9833 23.0653 65.9851 22.6926 65.9654 22.3223C65.9523 22.0736 66.0113 21.9897 66.2859 21.9928C67.7269 22.009 69.1682 22.0004 70.6094 22.0004Z" fill="white"/>
<path d="M42.9954 27.3979C42.9954 25.7051 43.0007 24.0122 42.9897 22.3195C42.988 22.0671 43.0421 21.9789 43.3133 21.9932C43.7961 22.0186 44.2813 22.0088 44.765 21.9963C44.9562 21.9913 45.0334 22.0251 45.033 22.2412C45.026 25.7033 45.0268 29.1653 45.0316 32.6274C45.0319 32.7983 44.9878 32.8537 44.8118 32.85C44.295 32.8393 43.7774 32.8343 43.2609 32.8517C43.0352 32.8594 42.9897 32.7848 42.9908 32.5746C42.9991 30.8491 42.9955 29.1235 42.9954 27.3979Z" fill="white"/>
<path d="M108.745 27.443C108.745 25.7294 108.751 24.0157 108.739 22.3021C108.738 22.0552 108.8 21.9834 109.049 21.9942C109.521 22.0148 109.995 22.0148 110.467 21.9945C110.724 21.9835 110.795 22.0527 110.794 22.3159C110.784 25.2956 110.787 28.2754 110.787 31.2552C110.787 31.7136 110.779 32.1722 110.792 32.6303C110.796 32.8058 110.74 32.8531 110.569 32.8499C110.041 32.84 109.513 32.8351 108.986 32.8517C108.764 32.8586 108.741 32.7705 108.742 32.5839C108.748 30.8703 108.746 29.1566 108.745 27.443Z" fill="white"/>
<path d="M20.6911 18.4294C22.5935 18.4322 24.4993 18.4621 26.3822 18.1357C29.018 17.6788 31.0103 16.3176 32.1159 13.8618C33.3814 11.0509 33.3988 8.18647 32.2196 5.34048C31.3396 3.21658 29.7697 1.81045 27.5488 1.13289C26.1997 0.721308 24.8056 0.614381 23.4109 0.594815C20.6063 0.555483 17.8009 0.572949 14.9959 0.554717C14.7246 0.552917 14.6515 0.619647 14.6522 0.893067C14.6621 4.51912 14.6592 8.14517 14.6568 11.7712C14.6568 11.8361 14.7113 11.9263 14.594 11.9685C14.5658 11.9391 14.5349 11.9091 14.5065 11.8769C11.2357 8.17697 7.96414 4.47759 4.69744 0.774006C4.56353 0.62218 4.43383 0.55345 4.22407 0.555317C2.81617 0.56765 1.40814 0.564483 0.000132976 0.566316C0.000132976 0.588182 0.000132976 0.610014 0.000132976 0.631846C0.0910585 0.807971 0.212942 0.96363 0.343555 1.11022C1.49342 2.40082 2.6314 3.70203 3.78486 4.98936C5.02612 6.37469 6.25821 7.76809 7.49437 9.15782C9.09416 10.9563 10.6868 12.7611 12.2854 14.5608C12.4019 14.6919 12.5379 14.8178 12.6145 15.0187C11.419 15.068 10.2662 14.9997 9.11364 15.0844C8.3358 15.1416 7.55783 15.1836 6.78715 15.3038C5.21915 15.5483 3.78624 16.1201 2.63053 17.2163C0.917447 18.8411 0.0846452 20.8673 0.034146 23.2137C0.051673 23.8133 -0.00203511 24.4148 0.0617269 25.0144C0.090905 25.4947 0.161972 25.9697 0.271902 26.4373C1.05625 29.7745 3.01827 31.9632 6.4857 32.6446C8.12101 32.9661 9.78605 32.9768 11.4454 32.9894C13.6787 33.0062 15.9123 32.9889 18.1457 32.9997C18.4055 33.001 18.4751 32.9381 18.4741 32.6765C18.4639 29.9461 18.4661 27.2157 18.4714 24.4852C18.4719 24.2977 18.4218 24.1584 18.2956 24.017C17.1509 22.7343 16.0138 21.4449 14.8726 20.1591C14.8193 20.0992 14.7902 20.0016 14.6586 20.0027C14.6586 20.0678 14.6586 20.1287 14.6586 20.1897C14.6587 23.1714 14.6558 26.153 14.6648 29.1347C14.6655 29.3774 14.6106 29.4517 14.3577 29.4462C13.3791 29.4249 12.3996 29.4447 11.4214 29.4163C10.1227 29.3787 8.83697 29.2392 7.5757 28.8988C5.74731 28.4055 4.69589 27.2246 4.36244 25.3941C4.18701 24.4311 4.1719 23.4644 4.33807 22.4956C4.62236 20.8383 5.5208 19.7141 7.17076 19.2186C8.03912 18.9578 8.92766 18.8172 9.82728 18.7344C11.7583 18.5567 13.695 18.6269 15.6296 18.6031C15.8993 18.5998 16.0681 18.687 16.243 18.8845C20.3298 23.5003 24.4243 28.1095 28.5135 32.7233C28.6339 32.8591 28.7537 32.9101 28.9359 32.9089C30.2121 32.9004 31.4884 32.9056 32.7647 32.9018C32.8557 32.9015 32.9574 32.9485 33.063 32.8587C28.8222 28.0621 24.5856 23.2702 20.3057 18.4294C20.478 18.4294 20.5845 18.4292 20.6911 18.4294ZM18.461 14.5876C18.4752 12.885 18.4681 11.1822 18.468 9.47947C18.468 7.77672 18.4683 6.07397 18.4674 4.37126C18.4673 4.2196 18.4283 4.08361 18.6846 4.08527C20.5302 4.09754 22.3776 4.05654 24.2085 4.35753C24.8159 4.45739 25.4105 4.60338 25.9929 4.80717C27.343 5.27948 28.1898 6.21783 28.5696 7.5669C28.9151 8.79444 28.9438 10.043 28.6857 11.2924C28.3253 13.0374 27.2028 14.025 25.4995 14.4377C24.0814 14.7813 22.638 14.8886 21.1857 14.9118C20.3943 14.9244 19.6022 14.903 18.811 14.9202C18.5471 14.926 18.4586 14.8696 18.461 14.5876Z" fill="white"/>
<path d="M79.9589 10.8422C80.0392 10.7486 80.1233 10.7716 80.1945 10.7583C81.2767 10.5559 82.3127 10.2464 83.1374 9.46996C84.0685 8.59338 84.4159 7.4607 84.5389 6.23821C84.745 4.18834 83.7199 2.20061 82 1.2765C81.0046 0.741676 79.9223 0.566867 78.8173 0.562533C74.6045 0.545864 70.3915 0.557862 66.1785 0.55046C65.9382 0.55006 65.8633 0.598662 65.8636 0.853007C65.8717 6.52024 65.8717 12.1875 65.8641 17.8548C65.8637 18.1027 65.9275 18.1644 66.1748 18.1618C67.4287 18.1487 68.6828 18.1477 69.9366 18.1621C70.2065 18.1652 70.2852 18.1014 70.2835 17.824C70.2711 15.6838 70.2823 13.5435 70.2694 11.4034C70.2677 11.1244 70.348 11.0681 70.615 11.0708C72.0229 11.0848 73.4312 11.0908 74.8388 11.0684C75.2099 11.0624 75.4201 11.1715 75.6272 11.4865C77.0446 13.6425 78.4877 15.782 79.9229 17.9266C79.9999 18.0416 80.0543 18.1615 80.2413 18.1606C81.911 18.1529 83.5808 18.1561 85.3239 18.1561C83.5064 15.6785 81.731 13.258 79.9589 10.8422ZM78.3898 7.89058C78.0643 7.94282 77.7366 7.97312 77.4049 7.97259C75.1387 7.96888 72.8725 7.96542 70.6064 7.97755C70.3277 7.97902 70.2667 7.90235 70.2701 7.63507C70.2857 6.41217 70.2847 5.18888 70.2703 3.96596C70.2674 3.72228 70.3214 3.65494 70.5734 3.65788C71.7943 3.67218 73.0155 3.66434 74.2366 3.66435C75.3147 3.66438 76.3928 3.66041 77.4708 3.66598C78.0462 3.66895 78.6106 3.72262 79.121 4.03477C79.8305 4.46869 80.1891 5.40556 79.9975 6.36628C79.8357 7.17751 79.2308 7.75554 78.3898 7.89058Z" fill="white"/>
<path d="M111.118 8.13225C110.838 5.0602 109.414 2.72263 106.583 1.31166C105.188 0.616426 103.695 0.276443 102.158 0.115968C100.019 -0.10731 97.8929 -0.0409078 95.826 0.605655C93.1728 1.43569 91.1119 2.96843 90.0612 5.61869C89.3892 7.31397 89.2685 9.08248 89.5143 10.8686C89.9232 13.8401 91.4406 16.0754 94.1555 17.4422C96.0879 18.415 98.1683 18.7607 100.275 18.7316C102.051 18.7527 103.736 18.5183 105.369 17.9235C107.744 17.0582 109.467 15.5218 110.425 13.1746C111.088 11.5515 111.275 9.85996 111.118 8.13225ZM105.64 12.8944C104.711 14.4142 103.328 15.2111 101.594 15.4664C101.171 15.5286 100.742 15.5444 100.315 15.5814C99.3127 15.5703 98.3464 15.3941 97.4198 15.0149C96.0361 14.4485 95.0557 13.4693 94.5172 12.0923C93.5679 9.66481 93.8644 7.37394 95.431 5.28054C96.2808 4.14496 97.506 3.5832 98.8694 3.32122C100.469 3.0139 102.039 3.14764 103.487 3.92078C105.527 5.01047 106.488 6.79662 106.604 9.04706C106.675 10.4161 106.366 11.7063 105.64 12.8944Z" fill="white"/>
<path d="M60.3001 3.97358C59.7758 2.31623 58.6515 1.28298 56.9628 0.84703C56.1053 0.625619 55.2275 0.561715 54.3479 0.559548C50.684 0.550613 47.0201 0.559011 43.3562 0.549409C43.0782 0.548709 42.9856 0.594978 42.9871 0.898626C43.001 3.71656 42.9953 6.53459 42.9953 9.35263C42.9953 12.1815 42.9991 15.0104 42.9889 17.8393C42.988 18.1022 43.0594 18.1649 43.3183 18.1619C44.5504 18.1478 45.783 18.1444 47.015 18.1637C47.3131 18.1684 47.3754 18.0875 47.3735 17.8027C47.3601 15.804 47.3666 13.8051 47.3655 11.8063C47.3654 11.6514 47.3357 11.5142 47.5867 11.5155C49.5561 11.5252 51.5259 11.5048 53.4951 11.5285C54.4653 11.5402 55.4313 11.5351 56.3841 11.3477C58.3508 10.9608 59.7641 9.90283 60.3442 7.94394C60.7339 6.62831 60.7169 5.29094 60.3001 3.97358ZM56.1436 6.5636C55.9579 7.66795 55.357 8.19861 54.2274 8.35572C53.911 8.39972 53.5941 8.42212 53.2741 8.42166C51.4148 8.41899 49.5554 8.41345 47.6961 8.42779C47.4117 8.42995 47.3575 8.34765 47.3602 8.08257C47.3742 6.69564 47.3739 5.30844 47.3599 3.92151C47.3573 3.66579 47.4359 3.61749 47.676 3.62052C48.732 3.63396 49.7883 3.62636 50.8445 3.62639C51.8127 3.62646 52.7821 3.65753 53.7488 3.61996C55.7347 3.54276 56.3752 5.1869 56.1436 6.5636Z" fill="white"/>
<path d="M125.831 22.9452C124.474 21.946 122.906 21.6777 121.257 21.9077C116.767 22.5341 115.295 27.0263 117.012 30.1181C118.13 32.1299 119.973 32.9398 122.212 33C122.701 32.9961 123.184 32.9584 123.655 32.8447C125.886 32.3064 127.426 30.9946 127.929 28.7416C128.449 26.4168 127.813 24.4035 125.831 22.9452ZM122.202 31.2158C119.976 31.1941 118.348 29.5636 118.383 27.3918C118.419 25.1412 120.037 23.6041 122.352 23.6226C124.475 23.6396 126.051 25.304 126.032 27.5073C126.013 29.6278 124.351 31.2366 122.202 31.2158Z" fill="white"/>
<path d="M103.175 32.6464C102.438 31.6008 101.705 30.5523 100.958 29.5134C100.817 29.3179 100.839 29.2596 101.062 29.1599C103.656 28.0013 103.5 24.7077 102.238 23.3781C101.413 22.5087 100.372 22.1129 99.2125 22.0405C97.5329 21.9356 95.8486 22.0217 94.1666 21.9969C93.9964 21.9943 93.9648 22.0634 93.9673 22.2098C93.9741 22.6136 93.9701 23.0176 93.9701 23.4216C93.9701 26.4569 93.9734 29.4921 93.9641 32.5273C93.9633 32.7818 94.0197 32.8656 94.2866 32.8527C94.7694 32.8293 95.2544 32.8365 95.738 32.8506C95.9487 32.8568 96.0177 32.8057 96.0139 32.5819C95.999 31.7087 96.0157 30.835 96.0023 29.9617C95.9987 29.73 96.0678 29.668 96.2976 29.6722C97.0672 29.6862 97.8374 29.6844 98.607 29.6728C98.8053 29.6699 98.9238 29.7302 99.0364 29.8936C99.6692 30.8122 100.313 31.7231 100.957 32.6339C101.022 32.7257 101.062 32.8498 101.22 32.8487C101.896 32.8438 102.573 32.8466 103.3 32.8466C103.24 32.7493 103.21 32.696 103.175 32.6464ZM98.8839 27.979C97.9878 28.0447 97.0833 27.9958 96.1826 28.0069C95.992 28.0093 96.0066 27.9 96.0071 27.7738C96.0095 27.1303 96.0082 26.4868 96.008 25.8434C96.0079 25.2108 96.0106 24.5782 96.0058 23.9456C96.0047 23.798 96.0104 23.6968 96.2087 23.7029C97.1414 23.7316 98.0767 23.6548 99.0074 23.7531C100.128 23.8713 100.845 24.4638 101.01 25.3849C101.272 26.8399 100.462 27.8632 98.8839 27.979Z" fill="white"/>
<path d="M142.846 32.6774C142.116 31.6401 141.394 30.5965 140.646 29.5722C140.464 29.324 140.495 29.2513 140.764 29.1302C143.292 27.9916 143.192 24.6132 141.78 23.2643C140.962 22.4815 139.971 22.1092 138.87 22.041C137.19 21.9371 135.506 22.0233 133.824 21.9965C133.634 21.9935 133.612 22.0754 133.612 22.2319C133.615 25.693 133.616 29.1542 133.61 32.6153C133.61 32.8077 133.671 32.8534 133.852 32.8498C134.369 32.8397 134.886 32.8347 135.403 32.8515C135.628 32.8589 135.673 32.7823 135.67 32.5734C135.658 31.711 135.673 30.8482 135.659 29.9859C135.656 29.755 135.694 29.6635 135.958 29.6704C136.727 29.6904 137.497 29.6851 138.267 29.6724C138.469 29.669 138.584 29.74 138.694 29.9002C139.328 30.8179 139.977 31.7255 140.61 32.644C140.717 32.7984 140.828 32.8535 141.013 32.8503C141.639 32.8394 142.266 32.8462 142.899 32.8462C142.934 32.749 142.875 32.7185 142.846 32.6774ZM139.057 27.9002C138.493 28.0416 137.922 27.9954 137.352 28.0018C136.88 28.0071 136.407 27.9934 135.935 28.0076C135.727 28.0139 135.653 27.9683 135.659 27.7423C135.677 27.1104 135.665 26.4777 135.665 25.8453C135.665 25.2129 135.671 24.5804 135.661 23.9482C135.658 23.7711 135.694 23.6983 135.893 23.7024C136.727 23.7197 137.562 23.7163 138.396 23.7313C138.591 23.7349 138.789 23.7695 138.982 23.8087C140.088 24.0338 140.694 24.7483 140.71 25.8379C140.725 26.8979 140.133 27.6302 139.057 27.9002Z" fill="white"/>
</svg>
